<svg xmlns="http://www.w3.org/2000/svg" viewBox="0 0 500 500"><defs><style>.cls-1{isolation:isolate;}.cls-2,.cls-9{fill:#c6c6c6;}.cls-2{opacity:0.42;mix-blend-mode:multiply;}.cls-3{fill:#ffe7c5;}.cls-4{fill:#f9b233;}.cls-5{fill:#1d1d1b;}.cls-6{fill:#5555c7;}.cls-7{fill:#bedaf2;}.cls-10,.cls-8{fill:#fff;}.cls-8{opacity:0.28;}.cls-11{fill:#e6332a;}.cls-12{fill:#95c11f;}.cls-13{fill:#ffed69;}.cls-14{fill:#00ddfe;}.cls-15{fill:#f95353;}.cls-16{fill:#350c0c;}.cls-17{fill:#ce3e3e;}.cls-18{fill:#ff7d7d;}.cls-19{fill:#ffefdc;}.cls-20{fill:#f6f6f6;}.cls-21{fill:#ffcc8f;}.cls-22{fill:#9d9d9c;}.cls-23{fill:#34525c;}.cls-24{fill:#274249;}</style></defs><g class="cls-1"><g id="OBJECTS"><ellipse class="cls-2" cx="248.32" cy="434.27" rx="63.57" ry="3.47"/><polygon class="cls-3" points="270.9 411.96 271.17 418.76 264.17 419.92 263.89 411.73 270.9 411.96"/><polygon class="cls-4" points="271.59 418.86 271.44 414.55 263.44 416.19 263.44 421.88 271.59 418.86"/><path class="cls-5" d="M272.56,418.51l6.79,7,17.6,5.84a1.49,1.49,0,0,1,.25,2.95H275.31L267.86,432l-1.5,1.8-4.66,0V422.53Z"/><polygon class="cls-3" points="231.33 411.96 231.05 418.76 238.05 419.92 238.33 411.73 231.33 411.96"/><polygon class="cls-4" points="230.63 418.86 230.78 414.55 238.78 416.19 238.78 421.88 230.63 418.86"/><path class="cls-5" d="M229.66,418.51l-6.79,7-17.6,5.84a1.49,1.49,0,0,0-.24,2.95h21.89l7.44-2.26,1.5,1.8,4.66,0V422.53Z"/><path d="M280.29,314.59,273.07,413H261.81l-2.3-80-10.65,33.32L240.69,413H228.08L234,366.89,238.74,312h0a58.15,58.15,0,0,1,38.63,1.46Z"/><polygon class="cls-6" points="241.37 279.94 233.94 315.5 285.27 315.5 285.52 279.94 241.37 279.94"/><rect class="cls-7" x="71.2" y="65.73" width="403" height="261.97" rx="11.9"/><rect class="cls-8" x="190.36" y="113.03" width="283.83" height="166.99"/><path class="cls-9" d="M82.64,65.73H462.75A11.44,11.44,0,0,1,474.2,77.17V95.7a0,0,0,0,1,0,0H71.2a0,0,0,0,1,0,0V77.17A11.44,11.44,0,0,1,82.64,65.73Z"/><path class="cls-10" d="M422.11,88.71h-284a8,8,0,0,1-8-8h0a8,8,0,0,1,8-8h284a8,8,0,0,1,8,8h0A8,8,0,0,1,422.11,88.71Z"/><path class="cls-11" d="M90,80.7a4.84,4.84,0,1,1-4.83-4.84A4.83,4.83,0,0,1,90,80.7Z"/><path class="cls-12" d="M104.2,80.7a4.84,4.84,0,1,1-4.84-4.84A4.84,4.84,0,0,1,104.2,80.7Z"/><circle class="cls-13" cx="113.53" cy="80.7" r="4.83"/><rect class="cls-14" x="76.7" y="108.37" width="103.67" height="44.93" rx="6.7"/><rect class="cls-10" x="76.7" y="163.26" width="103.67" height="44.93" rx="6.7"/><rect class="cls-10" x="76.7" y="218.32" width="103.67" height="44.93" rx="6.7"/><polygon class="cls-6" points="356.39 279.94 313.58 279.94 190.36 279.94 190.36 113.03 356.39 113.03 356.39 279.94"/><polygon class="cls-3" points="237.84 274.54 234.07 279.94 226.39 279.99 221.86 279.94 227.07 269.36 237.84 274.54"/><polygon class="cls-4" points="288.03 241.2 262.36 236.36 238.16 241.43 224.57 269.74 238.07 276.74 244.7 264.03 241.36 279.94 285.51 279.94 285.51 263.03 296.49 275.7 310.03 265.36 288.03 241.2"/><path class="cls-3" d="M267,216.34l1.08,9.8a21.54,21.54,0,0,0,1.54,6.81l2.06,5.08-4.26,6.05s-9.41-3.46-10.22-3.52l-.88-9.62,7.39-17,.06-2.17,1.94.85Z"/><polygon class="cls-3" points="274.94 194.05 273.36 201.36 269.97 203.81 267.08 193.4 274.94 194.05"/><path class="cls-3" d="M241.82,200.85,239,231.47l25.54-.49,3.13-18.56a5.54,5.54,0,0,0,5.61,1.21c3.84-1.24,4.91-12.67,3.77-14.8s-4.66,2.92-4.66,2.92-2.54-14.39-6.51-15.78-21.43-2.05-21.43-2.05Z"/><path class="cls-5" d="M256.19,201.24c-.11,1.42-.69,2.53-1.29,2.48s-1-1.24-.88-2.66.69-2.53,1.29-2.48S256.31,199.82,256.19,201.24Z"/><path class="cls-5" d="M247.44,199.73c-.11,1.42-.69,2.53-1.29,2.48s-1-1.23-.88-2.65.69-2.53,1.29-2.49S247.55,198.31,247.44,199.73Z"/><path class="cls-5" d="M250.78,201.81c.46-4.86,3.48-8.4,6.88-8.08s5.68,4.38,5.22,9.23-3.49,8.4-6.88,8.08S250.32,206.66,250.78,201.81Zm1.85.17c-.35,3.69,1.27,7,3.55,7.21s4.5-2.71,4.85-6.4-1.27-7-3.55-7.21S253,198.29,252.63,202Z"/><path class="cls-5" d="M239.06,200.69c.46-4.86,3.48-8.41,6.87-8.08s5.69,4.38,5.22,9.23-3.48,8.4-6.87,8.08S238.59,205.54,239.06,200.69Zm1.84.17c-.35,3.69,1.28,7,3.55,7.21s4.5-2.71,4.85-6.4-1.27-7-3.54-7.21S241.26,197.17,240.9,200.86Z"/><polygon class="cls-15" points="251.58 197.55 240.73 212.01 250.08 212.01 251.58 197.55"/><polygon class="cls-5" points="262.21 202.07 273.89 200.3 273.7 198.45 262.02 200.23 262.21 202.07"/><path class="cls-16" d="M264.73,193.31s-3.66-9.84-16.88-4.66-19.56-7.32-13.7-14,12.68.13,12.68.13,30.19,0,28.11,19.22Z"/><path class="cls-16" d="M242.58,175.21a6.24,6.24,0,1,0,6.67-5.78A6.24,6.24,0,0,0,242.58,175.21Z"/><path class="cls-16" d="M253.17,173.65a6.24,6.24,0,1,0,6.66-5.77A6.24,6.24,0,0,0,253.17,173.65Z"/><path class="cls-16" d="M263.23,178.85a6.24,6.24,0,1,0,6.66-5.78A6.23,6.23,0,0,0,263.23,178.85Z"/><path class="cls-16" d="M267.53,187.18a6.24,6.24,0,1,0,6.66-5.78A6.23,6.23,0,0,0,267.53,187.18Z"/><circle class="cls-3" cx="264.51" cy="239.65" r="7.35"/><path class="cls-17" d="M251.28,217.51a7.81,7.81,0,0,1,2.61-2.15c1.38-.57,2.92-.61,3.9,1s-.21,3.61-1.85,5.51c-1,1.12-4.83,3.5-7.51,3.32s-4.21-.57-5.31-1.89a3.24,3.24,0,0,1,.5-4.27,3.57,3.57,0,0,1,3.25-.61A4.16,4.16,0,0,0,251.28,217.51Z"/><path class="cls-18" d="M257.52,219.71a7.31,7.31,0,0,0-4.56,1,7.86,7.86,0,0,0-3.77,4.43,12.37,12.37,0,0,0,5.78-2.39A8.38,8.38,0,0,0,257.52,219.71Z"/><polygon class="cls-3" points="298 274.54 302.28 279.94 309.45 279.99 324.53 279.94 311.26 274.74 306.58 268 298 274.54"/><path class="cls-19" d="M326.63,277.32s.58,10,3.11,10.84a4.65,4.65,0,0,0,4.07,2.08,2.68,2.68,0,0,0,2.89-2.44s.63-.27.81-1.45c.13-.85,1.11-4.91.52-7.1a2.86,2.86,0,0,0-1.88-2C334.09,276.61,330.23,275.77,326.63,277.32Z"/><path class="cls-19" d="M327.74,276.92s-5.14-.68-7.23.44-.58,2.58-.58,2.58l8,.05Z"/><path class="cls-19" d="M202,277.32s-.59,10-3.12,10.84a4.63,4.63,0,0,1-4.06,2.08,2.69,2.69,0,0,1-2.9-2.44s-.63-.27-.81-1.45c-.13-.85-1.11-4.91-.52-7.1a2.87,2.87,0,0,1,1.89-2C194.5,276.61,198.36,275.77,202,277.32Z"/><path class="cls-19" d="M200.84,276.92s5.15-.68,7.23.44.58,2.58.58,2.58l-8,.05Z"/><circle class="cls-12" cx="217.77" cy="302.32" r="12.08" transform="translate(-115.89 468.11) rotate(-80.66)"/><circle class="cls-11" cx="326.63" cy="302.32" r="12.08" transform="translate(-23.94 576.51) rotate(-80.82)"/><circle class="cls-10" cx="385.7" cy="135.45" r="10.67"/><rect class="cls-10" x="401.7" y="130.83" width="57.33" height="6.24"/><circle class="cls-10" cx="385.7" cy="164.45" r="10.67"/><rect class="cls-10" x="401.7" y="159.83" width="61.33" height="6.24"/><circle class="cls-10" cx="385.7" cy="193.45" r="10.67"/><rect class="cls-10" x="401.7" y="188.83" width="50.67" height="6.24"/><circle class="cls-10" cx="385.7" cy="222.45" r="10.67"/><rect class="cls-10" x="401.7" y="217.83" width="61.33" height="6.24"/><circle class="cls-10" cx="385.7" cy="251.45" r="10.67"/><rect class="cls-10" x="401.7" y="246.83" width="47.33" height="6.24"/><rect class="cls-8" x="85.32" y="115.49" width="12.75" height="12.75"/><rect class="cls-8" x="102.7" y="115.49" width="12.75" height="12.75"/><rect class="cls-8" x="120.07" y="115.49" width="12.75" height="12.75"/><rect class="cls-8" x="137.45" y="115.49" width="12.75" height="12.75"/><rect class="cls-8" x="154.82" y="115.49" width="12.75" height="12.75"/><rect class="cls-8" x="85.32" y="132.99" width="12.75" height="12.75"/><rect class="cls-8" x="102.7" y="132.99" width="12.75" height="12.75"/><rect class="cls-8" x="120.07" y="132.99" width="12.75" height="12.75"/><rect class="cls-8" x="137.45" y="132.99" width="12.75" height="12.75"/><rect class="cls-8" x="154.82" y="132.99" width="12.75" height="12.75"/><rect class="cls-20" x="86.7" y="169.9" width="84.5" height="3.86"/><rect class="cls-20" x="86.7" y="176.51" width="84.5" height="3.86"/><rect class="cls-20" x="86.7" y="183.12" width="84.5" height="3.86"/><rect class="cls-20" x="86.7" y="189.74" width="54.25" height="3.86"/><rect class="cls-20" x="86.7" y="196.35" width="84.5" height="3.86"/><rect class="cls-20" x="86.7" y="225.63" width="84.5" height="3.86"/><rect class="cls-20" x="86.7" y="232.24" width="84.5" height="3.86"/><rect class="cls-20" x="86.7" y="238.86" width="84.5" height="3.86"/><rect class="cls-20" x="86.7" y="245.47" width="54.25" height="3.86"/><rect class="cls-20" x="86.7" y="252.08" width="84.5" height="3.86"/><circle class="cls-20" cx="385.38" cy="135.45" r="4.06"/><path class="cls-20" d="M383.38,137.8l-5.05,5.37s3,2.82,6.43,2.91a10.68,10.68,0,0,0,6.94-1.81l-4.82-6.84Z"/><circle class="cls-20" cx="385.38" cy="164.49" r="4.06"/><path class="cls-20" d="M383.38,166.84l-5.05,5.36s3,2.82,6.43,2.91a10.67,10.67,0,0,0,6.94-1.8l-4.82-6.85Z"/><circle class="cls-20" cx="385.38" cy="193.43" r="4.06"/><path class="cls-20" d="M383.38,195.77l-5.05,5.37s3,2.82,6.43,2.91a10.68,10.68,0,0,0,6.94-1.81l-4.82-6.84Z"/><circle class="cls-20" cx="385.38" cy="222.49" r="4.06"/><path class="cls-20" d="M383.38,224.84l-5.05,5.36s3,2.82,6.43,2.91a10.67,10.67,0,0,0,6.94-1.8l-4.82-6.85Z"/><circle class="cls-20" cx="385.38" cy="251.49" r="4.06"/><path class="cls-20" d="M383.38,253.84l-5.05,5.36s3,2.82,6.43,2.91a10.67,10.67,0,0,0,6.94-1.8l-4.82-6.85Z"/><ellipse class="cls-2" cx="104.53" cy="476.48" rx="81.3" ry="3.29"/><polygon class="cls-21" points="134.61 445.06 133.12 454.34 123.33 454.01 125.19 442.83 134.61 445.06"/><polygon class="cls-4" points="133.74 454.36 135.47 448.72 123.36 448.75 122.42 453.98 133.74 454.36"/><path class="cls-5" d="M135.07,454.38l3.09,13.13L150.92,472a2.07,2.07,0,0,1-.47,4.07l-16,.38L125,471.39l-2.53,2-7.61-2.93,6.78-17Z"/><polygon points="146.59 405.12 135.99 445.64 121.08 443.72 124.26 411.65 146.59 405.12"/><polygon class="cls-21" points="77.48 444.83 78.97 454.12 88.76 453.79 86.9 442.61 77.48 444.83"/><polygon class="cls-4" points="78.35 454.14 76.62 448.49 88.72 448.52 89.67 453.75 78.35 454.14"/><path class="cls-5" d="M77,454.16l-3.09,13.13-12.76,4.52a2.07,2.07,0,0,0,.47,4.07l16,.38,9.46-5.1,2.52,2,7.62-2.93-6.78-17.05Z"/><polygon points="65.5 404.89 76.1 445.41 91.01 443.5 87.83 411.43 65.5 404.89"/><path d="M122,237.2a5.51,5.51,0,1,1-5.5-5.51A5.5,5.5,0,0,1,122,237.2Z"/><path d="M122.48,245.67a5.51,5.51,0,1,1-5.51-5.5A5.51,5.51,0,0,1,122.48,245.67Z"/><circle cx="115.3" cy="252.27" r="5.51"/><path d="M119.12,258.2a5.51,5.51,0,1,1-5.5-5.5A5.51,5.51,0,0,1,119.12,258.2Z"/><circle cx="107.77" cy="258.81" r="5.51"/><circle cx="108.11" cy="255.11" r="5.51"/><path d="M98.68,258.2a5.51,5.51,0,1,1-5.51-5.5A5.51,5.51,0,0,1,98.68,258.2Z"/><circle cx="87.67" cy="252.27" r="5.51"/><circle cx="84.94" cy="244.96" r="5.51"/><path class="cls-21" d="M116.33,237.67a9.26,9.26,0,0,0,1.1-.34c4.39-1.68,3.8-5.74,2.12-10.13-1.1-2.87-.8-5.67-3.61-6.2Z"/><path class="cls-21" d="M83.63,243.19a8.25,8.25,0,0,1-1.22,0c-5-.18-5.44-3.6-5.26-8.62.13-3.27-1.51-6.88,1.15-8.38Z"/><path class="cls-5" d="M126.31,192.05c-1.68-2.66-6.79-7.67-12.43-4.71-2.29,1.19-4.62,3.78-8.82,3.78s-9.08-3.31-21.9,2.61c-.46.22-.89.45-1.3.69A8,8,0,0,1,81.3,200c-1.26,2.56-3,4.86-4.36,7.34a6.14,6.14,0,0,1-1.67,1.93,15.28,15.28,0,0,0,12.38,12.16l2,.34c12.31,2,25.61-4.06,32.6-9.24S128,194.71,126.31,192.05Z"/><path class="cls-21" d="M95.41,253,95,257.49a10.84,10.84,0,0,1-7.65,9.35l-1.92.59h33.7l-4.37-.1a10.84,10.84,0,0,1-6.76-11l.49-5.42Z"/><path class="cls-5" d="M75.13,208.45s3.16,32.94,13.46,42,23.16,3.48,26.57-5.24c3.49-8.92-1-39.2-1-39.2Z"/><path class="cls-5" d="M119.77,186.74a6.32,6.32,0,0,1-4.84,6.74c-3.42.94-6.16,3.64-9.42,5a27.93,27.93,0,0,1-6.61,2.09c0,.2,0,.4,0,.61a15.48,15.48,0,1,0,20.9-14.48Z"/><circle class="cls-5" cx="93.23" cy="208" r="18.23"/><path class="cls-6" d="M138.49,269.47l-24.78-4.82a83.67,83.67,0,0,0-32.58.33l-21,5.48L45.37,307.52,64,317.15l9.11-17.49-4.58,21.9h60.77V298.28l15.1,17.44L163,301.49Z"/><rect class="cls-22" x="87.18" y="409.91" width="34.69" height="16.23" rx="7.01"/><path class="cls-23" d="M190.08,338.85a7.1,7.1,0,0,0-4.91-3.24c-3.74-.62-13.59-3.48-12.27-16.44,1.63-16-29-31.58-68.37-31.58s-70,15.62-68.37,31.58c1.32,13-8.53,15.82-12.27,16.44A7.14,7.14,0,0,0,19,338.85c-4.86,7.8-5,28.55,16.86,50.64,1.42,1.43,2.87,2.81,4.37,4.14a97,97,0,0,0,128.66,0c1.49-1.33,2.95-2.71,4.36-4.14C195.05,367.4,195,346.65,190.08,338.85Z"/><path class="cls-24" d="M188.64,363.28c-1.42,1.43-2.87,2.81-4.37,4.14a97,97,0,0,1-128.66,0c-1.49-1.33-3-2.71-4.36-4.14-11.4-11.54-16.81-22.71-18.69-31.86a16.3,16.3,0,0,1-8.67,4.19A7.14,7.14,0,0,0,19,338.85c-4.86,7.8-5,28.55,16.86,50.64,1.42,1.43,2.87,2.81,4.37,4.14a97,97,0,0,0,128.66,0c1.49-1.33,2.95-2.71,4.36-4.14,10.22-10.34,15.62-20.38,18-28.94C190.39,361.46,189.54,362.37,188.64,363.28Z"/><rect class="cls-22" x="98.89" y="418.02" width="11.29" height="55.57"/><path class="cls-22" d="M134.48,476.26H74.58a5.53,5.53,0,0,1,5.53-5.54H129a5.54,5.54,0,0,1,5.53,5.54Z"/></g></g></svg>