<svg xmlns="http://www.w3.org/2000/svg" xmlns:xlink="http://www.w3.org/1999/xlink" viewBox="0 0 645.71 430.47"><defs><style>.cls-1{fill:#ed0c37;}.cls-2,.cls-49{fill:#fd6141;}.cls-3{isolation:isolate;}.cls-4{fill:#71bf9d;}.cls-14,.cls-19,.cls-20,.cls-22,.cls-26,.cls-43,.cls-48,.cls-5,.cls-56,.cls-6{fill:none;}.cls-5,.cls-6{stroke:#e57e55;}.cls-15,.cls-20,.cls-33,.cls-48,.cls-5,.cls-56,.cls-6{stroke-linecap:round;}.cls-15,.cls-33,.cls-48,.cls-5,.cls-6{stroke-linejoin:round;}.cls-5{stroke-width:1px;}.cls-6{stroke-width:0.8px;}.cls-11,.cls-13,.cls-15,.cls-33,.cls-7,.cls-8{fill:#fff;}.cls-26,.cls-43,.cls-48,.cls-56,.cls-8{stroke:#fff;}.cls-11,.cls-13,.cls-14,.cls-20,.cls-22,.cls-26,.cls-29,.cls-43,.cls-56,.cls-8{stroke-miterlimit:10;}.cls-8{stroke-width:0.97px;}.cls-12,.cls-24,.cls-58,.cls-9{fill:#764582;}.cls-10,.cls-30{fill:#9d68aa;}.cls-11,.cls-13,.cls-14,.cls-15,.cls-29{stroke:#764582;}.cls-11,.cls-29{stroke-width:0.97px;}.cls-12,.cls-30,.cls-44,.cls-47,.cls-49,.cls-51{fill-rule:evenodd;}.cls-13,.cls-15{stroke-width:1.02px;}.cls-14{stroke-width:1.26px;}.cls-16,.cls-28,.cls-47{fill:#a1abad;}.cls-16,.cls-47{opacity:0.7;}.cls-16,.cls-47,.cls-54,.cls-57{mix-blend-mode:multiply;}.cls-17,.cls-51{fill:#dd4026;}.cls-18{fill:#e2e2e2;}.cls-20,.cls-22{stroke:#efe9da;stroke-width:1.16px;}.cls-21{fill:#ffd25a;}.cls-23{fill:#3c8460;}.cls-24{opacity:0.2;}.cls-25{fill:#e4bce8;}.cls-26{stroke-width:0.97px;}.cls-27{fill:#fdeeff;}.cls-29{fill:#ffcc5a;}.cls-31{fill:#3e2344;}.cls-32{fill:#ffdcae;}.cls-33{stroke:#fd6141;stroke-width:1.85px;}.cls-34{fill:#ff8976;}.cls-35,.cls-54{fill:#ffbe57;}.cls-36{fill:#f99441;}.cls-37,.cls-44{fill:#ffb072;}.cls-38{clip-path:url(#clip-path);}.cls-39{fill:#ffaec1;}.cls-40{fill:#552f5e;}.cls-41{fill:#f29353;}.cls-42{clip-path:url(#clip-path-2);}.cls-43,.cls-48,.cls-56{stroke-width:0.5px;}.cls-45,.cls-46{fill:#e57e55;}.cls-46,.cls-50,.cls-54{opacity:0.5;}.cls-52{clip-path:url(#clip-path-3);}.cls-53{fill:#f7b614;}.cls-55{clip-path:url(#clip-path-4);}.cls-58{opacity:0.3;}</style><clipPath id="clip-path"><path class="cls-1" d="M229.89,339.46a7.59,7.59,0,0,0,.56,5.31c-.25.11-.06,1.13.38,1.34s4.33.2,5.1-.41a.83.83,0,0,0,0-.68s1,.36,3.65-.15a13.65,13.65,0,0,0,5.2-2c.32-.2.1-.92-.26-.8,0,0-.23-1.88-1.8-1.78a11.83,11.83,0,0,1-7.17-2.09,6,6,0,0,0-2.13-.93A3.63,3.63,0,0,0,229.89,339.46Z"/></clipPath><clipPath id="clip-path-2"><path class="cls-1" d="M151.56,330.18a7.66,7.66,0,0,0-4.15,3.37c-.23-.14-1,.57-.91,1.06s2.2,3.73,3.12,4.05a.85.85,0,0,0,.56-.4s.21,1,2.12,3a13.76,13.76,0,0,0,4.47,3.3c.35.15.83-.42.54-.66,0,0,1.44-1.22.5-2.48a11.89,11.89,0,0,1-2.15-7.15,6,6,0,0,0-.38-2.3A3.67,3.67,0,0,0,151.56,330.18Z"/></clipPath><clipPath id="clip-path-3"><path class="cls-2" d="M443.79,333.73a28,28,0,0,1,2.48,2.39c.36.52,1.73,4.39,1.73,4.39a3.32,3.32,0,0,1-2.14,1.48l-1.73-2.22s-.88,3.88-1.77,5.14c-1.08,1.52-7.25,3.28-8.17,2.82,0,0-1.14-2.26.8-3.5,3.57-2.29,3.66-7.1,3.66-7.1A3.36,3.36,0,0,1,443.79,333.73Z"/></clipPath><clipPath id="clip-path-4"><path class="cls-2" d="M458,336.59a28,28,0,0,1,1.47,3.11c.15.62.05,4.72.05,4.72A3.25,3.25,0,0,1,457,345l-.83-2.68s-1.27,2.62-2.55,3.48c-1.55,1-7.06,2.32-8,1.86,0,0-1.28-2.46.77-3.51,5.12-2.62,5.57-6.25,5.57-6.25A3.36,3.36,0,0,1,458,336.59Z"/></clipPath></defs><g class="cls-3"><g id="OBJECTS"><path class="cls-4" d="M548.51,296c-1.92-9.9-20.32-11.55-20.32-11.55s10.75-17.93,3.13-26.05-25.15,10.95-25.15,10.95-5.79-12.05-14.39,0c0,0-14.34-10.95-26.74-5.32-8.86,4-7.55,14.63-6.08,20.38H215.44a6.21,6.21,0,0,0-.78-1.23c-8.23-9.93-32.09-4.82-32.09-4.82s10-24.6-6.46-32.06-35.43,7.05-35.43,7.05c-11.4-16-19.07,0-19.07,0S98.4,228.1,88.3,238.86s4.14,34.52,4.14,34.52-24.38,2.18-26.93,15.3,42.18,26.73,42.18,26.73l409,.78S550.43,305.92,548.51,296Z"/><path class="cls-5" d="M130.19,311.55A182.93,182.93,0,0,0,97.4,254.39"/><path class="cls-5" d="M130.18,312.3a355.59,355.59,0,0,1,5.12-49.05"/><path class="cls-5" d="M125.77,300.89A120,120,0,0,0,92.09,290"/><path class="cls-5" d="M114.94,278.57a60.52,60.52,0,0,0,4.34-15.6"/><path class="cls-6" d="M498.2,313.38a146.28,146.28,0,0,1,26.25-45.77"/><path class="cls-6" d="M498.2,314a282.63,282.63,0,0,0-4.1-39.27"/><path class="cls-6" d="M501.74,304.84a96.24,96.24,0,0,1,27-8.71"/><path class="cls-6" d="M510.41,287a47.53,47.53,0,0,1-3.47-12.49"/><path class="cls-7" d="M109.36,244.67a1.23,1.23,0,0,1,.51.26,1.32,1.32,0,0,1,.37.44.46.46,0,0,1-.22.6.45.45,0,0,1-.28,0,1.23,1.23,0,0,1-.51-.26,1.3,1.3,0,0,1-.37-.43.47.47,0,0,1,.22-.6A.4.4,0,0,1,109.36,244.67Z"/><path class="cls-7" d="M111,246a1.44,1.44,0,0,1,.5.28,1.24,1.24,0,0,1,.36.45.47.47,0,0,1-.24.59.45.45,0,0,1-.28,0,1.34,1.34,0,0,1-.5-.27,1.24,1.24,0,0,1-.36-.45.47.47,0,0,1,.23-.59A.49.49,0,0,1,111,246Z"/><path class="cls-7" d="M112.66,247.4a1.39,1.39,0,0,1,.49.28,1.44,1.44,0,0,1,.35.46.45.45,0,0,1-.25.58.49.49,0,0,1-.29,0,1.59,1.59,0,0,1-.49-.29,1.28,1.28,0,0,1-.34-.45.45.45,0,0,1,.24-.59A.41.41,0,0,1,112.66,247.4Z"/><path class="cls-7" d="M115.47,250a1.31,1.31,0,0,1,.48.3,1.33,1.33,0,0,1,.33.47.45.45,0,0,1-.28.57.39.39,0,0,1-.28,0,1.31,1.31,0,0,1-.48-.3,1.33,1.33,0,0,1-.33-.47.46.46,0,0,1,.27-.57A.42.42,0,0,1,115.47,250Z"/><path class="cls-7" d="M117.41,251.82a.57.57,0,0,1,.32.16.61.61,0,0,1,.16.32.53.53,0,0,1-.47.57h-.11a.57.57,0,0,1-.47-.47.53.53,0,0,1,.46-.58Z"/><path class="cls-7" d="M119,253.47a.54.54,0,0,1,.32.16.59.59,0,0,1,.15.33.52.52,0,0,1-.49.55.17.17,0,0,1-.1,0,.55.55,0,0,1-.31-.16.56.56,0,0,1-.15-.33.53.53,0,0,1,.48-.56Z"/><path class="cls-7" d="M90.75,239.12a8.88,8.88,0,0,1,4.71-1.23,13.72,13.72,0,0,1,4.72,1.08,29.91,29.91,0,0,1,4.23,2.23,43.55,43.55,0,0,1,3.86,2.75.41.41,0,0,1-.49.65c-1.27-.9-2.56-1.77-3.89-2.56a28.37,28.37,0,0,0-4.1-2.11,12.9,12.9,0,0,0-4.35-1.06,8.55,8.55,0,0,0-4.27.94.43.43,0,0,1-.54-.16A.38.38,0,0,1,90.75,239.12Z"/><path class="cls-7" d="M90.28,240.34c0,.17-.17.24-.25.37a.84.84,0,0,1-.38.25.5.5,0,0,1-.6-.3.6.6,0,0,1,0-.23,1.23,1.23,0,0,1,.26-.46.9.9,0,0,1,.46-.25.47.47,0,0,1,.54.39A.44.44,0,0,1,90.28,240.34Z"/><path class="cls-7" d="M89.15,241.6A1,1,0,0,1,89,242c-.1.11-.16.25-.32.33a.47.47,0,0,1-.64-.15A.62.62,0,0,1,88,242a.89.89,0,0,1,.15-.49,1,1,0,0,1,.38-.36.46.46,0,0,1,.61.24A.59.59,0,0,1,89.15,241.6Z"/><path class="cls-7" d="M88.31,243.1a9,9,0,0,1-.24.89l-.23.9c-.15.6-.28,1.2-.44,1.81a.43.43,0,0,1-.51.28.38.38,0,0,1-.29-.38,8.67,8.67,0,0,1,.23-2l.3-1a9.37,9.37,0,0,1,.44-.9.4.4,0,0,1,.57-.12A.42.42,0,0,1,88.31,243.1Z"/><path class="cls-7" d="M87.26,248.29a.44.44,0,0,1,.11.29.43.43,0,0,1-.13.27.56.56,0,0,1-.79,0h0a.45.45,0,0,1-.1-.3.47.47,0,0,1,.13-.29.57.57,0,0,1,.79,0Z"/><path class="cls-7" d="M87.27,250.18a.4.4,0,0,1,.12.28.43.43,0,0,1-.1.29.59.59,0,0,1-.8.05v0a.37.37,0,0,1-.12-.28.41.41,0,0,1,.1-.29.57.57,0,0,1,.79,0Z"/><path class="cls-7" d="M530.76,270.5a1.61,1.61,0,0,1,0,.62,1.64,1.64,0,0,1-.25.56.44.44,0,0,1-.64.06.47.47,0,0,1-.15-.25,1.49,1.49,0,0,1,0-.6,1.45,1.45,0,0,1,.23-.56.45.45,0,0,1,.64-.08A.47.47,0,0,1,530.76,270.5Z"/><path class="cls-7" d="M530.22,272.73a1.6,1.6,0,0,1-.05.62,1.41,1.41,0,0,1-.27.55.44.44,0,0,1-.64,0,.45.45,0,0,1-.14-.25,1.76,1.76,0,0,1,0-.61,1.61,1.61,0,0,1,.27-.54.45.45,0,0,1,.64-.06A.51.51,0,0,1,530.22,272.73Z"/><path class="cls-7" d="M529.59,274.94a1.55,1.55,0,0,1-.06.61,1.69,1.69,0,0,1-.3.54.45.45,0,0,1-.64,0,.57.57,0,0,1-.13-.27,1.48,1.48,0,0,1,.08-.6,1.55,1.55,0,0,1,.28-.54.45.45,0,0,1,.64,0A.49.49,0,0,1,529.59,274.94Z"/><path class="cls-7" d="M528.31,278.79a1.54,1.54,0,0,1-.1.61,1.5,1.5,0,0,1-.32.52.44.44,0,0,1-.64,0,.46.46,0,0,1-.11-.27,1.49,1.49,0,0,1,.1-.6,1.47,1.47,0,0,1,.31-.52.45.45,0,0,1,.64,0A.5.5,0,0,1,528.31,278.79Z"/><path class="cls-7" d="M527.29,281.5a.69.69,0,0,1,0,.38.61.61,0,0,1-.24.29.5.5,0,0,1-.71-.2.42.42,0,0,1,0-.1.68.68,0,0,1,0-.38.59.59,0,0,1,.24-.29.51.51,0,0,1,.71.2A1,1,0,0,1,527.29,281.5Z"/><path class="cls-7" d="M526.34,283.75a.68.68,0,0,1,0,.38.63.63,0,0,1-.25.29.52.52,0,0,1-.71-.23l0-.1a.56.56,0,0,1,0-.37.58.58,0,0,1,.25-.29.51.51,0,0,1,.7.22A.42.42,0,0,1,526.34,283.75Z"/><path class="cls-7" d="M519.2,261a18.61,18.61,0,0,1,4.67-2.12,6.72,6.72,0,0,1,5.24.39,4.26,4.26,0,0,1,1.74,2.15,9.07,9.07,0,0,1,.54,2.59,20.27,20.27,0,0,1-.46,5.11.4.4,0,1,1-.79-.14,23.14,23.14,0,0,0,.27-4.9c-.13-1.57-.59-3.22-1.84-3.93a5.75,5.75,0,0,0-4.45-.32,20.28,20.28,0,0,0-4.51,1.87.41.41,0,1,1-.41-.7Z"/><path class="cls-7" d="M518.57,262.21a1.06,1.06,0,0,1-.37.36,1,1,0,0,1-.48.18.46.46,0,0,1-.5-.44.46.46,0,0,1,.06-.23,1,1,0,0,1,.36-.38,1.2,1.2,0,0,1,.5-.18.45.45,0,0,1,.48.45A.47.47,0,0,1,518.57,262.21Z"/><path class="cls-7" d="M517,263.26a1.28,1.28,0,0,1-.35.38,1.18,1.18,0,0,1-.47.2.47.47,0,0,1-.52-.42.51.51,0,0,1,0-.24,1.32,1.32,0,0,1,.35-.39,1.27,1.27,0,0,1,.49-.2.45.45,0,0,1,.5.43A.49.49,0,0,1,517,263.26Z"/><path class="cls-7" d="M515.43,264.38c-.48.48-1,.9-1.53,1.34s-1.06.85-1.64,1.22a.4.4,0,0,1-.57-.11.42.42,0,0,1,0-.5,13.5,13.5,0,0,1,1.52-1.41,12.63,12.63,0,0,1,1.7-1.19.4.4,0,0,1,.56.15A.42.42,0,0,1,515.43,264.38Z"/><path class="cls-7" d="M511,268.09a.45.45,0,0,1-.15.29.46.46,0,0,1-.3.12.56.56,0,0,1-.55-.58h0a.48.48,0,0,1,.15-.3.51.51,0,0,1,.31-.12.54.54,0,0,1,.54.58Z"/><path class="cls-7" d="M509.5,269.5a.5.5,0,0,1-.14.29.47.47,0,0,1-.3.14.56.56,0,0,1-.57-.56v0a.49.49,0,0,1,.44-.43.56.56,0,0,1,.57.56Z"/><path class="cls-7" d="M312.15,207C249.86,206,83.29,257.57,63,207c-16.74-41.68,45.87-38.49,49.51-73S99.82,84.78,125.81,68.8s68.34,6.2,96.31-16,42.57-38.35,105.53-46,109.56,63.28,136.5,70.31S529.68,66.24,548.61,88s-42.23,69.82-29.12,89.88,45.19,30.92,32.79,59S372.77,207.94,312.15,207Z"/><path class="cls-7" d="M63.57,187.69a2.06,2.06,0,0,1,.16-.79,2.44,2.44,0,0,1,.4-.7.39.39,0,0,1,.66,0,.6.6,0,0,1,.09.33,2.66,2.66,0,0,1-.18.75,3.5,3.5,0,0,1-.36.69c-.2.24-.5.28-.66.07A.55.55,0,0,1,63.57,187.69Z"/><path class="cls-7" d="M64.72,184.9a2.14,2.14,0,0,1,.26-.76,2.33,2.33,0,0,1,.48-.65c.26-.21.55-.17.67.07a.53.53,0,0,1,0,.33,2.87,2.87,0,0,1-.26.73,2.75,2.75,0,0,1-.46.63.41.41,0,0,1-.66,0A.65.65,0,0,1,64.72,184.9Z"/><path class="cls-7" d="M66.2,182.28a2.59,2.59,0,0,1,.35-.73,2.52,2.52,0,0,1,.55-.58c.27-.18.56-.12.65.14a.56.56,0,0,1,0,.34,3.22,3.22,0,0,1-.36.69,2.82,2.82,0,0,1-.52.58c-.25.18-.55.15-.66-.1A.64.64,0,0,1,66.2,182.28Z"/><path class="cls-7" d="M69.5,178.09a2.58,2.58,0,0,1,.47-.65,2.61,2.61,0,0,1,.65-.48c.3-.13.57,0,.62.25a.68.68,0,0,1-.06.34,3.16,3.16,0,0,1-.47.62,2.89,2.89,0,0,1-.62.47.4.4,0,0,1-.63-.21A.57.57,0,0,1,69.5,178.09Z"/><path class="cls-7" d="M72.26,175.48a1.05,1.05,0,0,1,.29-.39,1,1,0,0,1,.45-.21.43.43,0,0,1,.53.51l0,.12a1,1,0,0,1-.72.59.43.43,0,0,1-.55-.49Z"/><path class="cls-7" d="M74.82,173.55a1.07,1.07,0,0,1,.34-.36.91.91,0,0,1,.47-.16.43.43,0,0,1,.47.57.61.61,0,0,1,0,.12,1,1,0,0,1-.32.34,1.1,1.1,0,0,1-.45.16.44.44,0,0,1-.5-.55S74.81,173.59,74.82,173.55Z"/><path class="cls-7" d="M70.35,214.05c-.76-.8-1.39-1.72-2.09-2.58s-1.21-1.85-1.77-2.8-1-2-1.48-3l-1.22-3.08a25.49,25.49,0,0,1-1.31-6.53,20.17,20.17,0,0,1,.67-6.61c.08-.3.32-.48.53-.42a.49.49,0,0,1,.25.61,21.24,21.24,0,0,0-.47,6.36,24.43,24.43,0,0,0,1.31,6.25l1.17,3c.44,1,.94,1.93,1.41,2.9S68.46,210,69,211s1.24,1.76,1.95,2.57a.47.47,0,0,1,0,.66A.49.49,0,0,1,70.35,214.05Z"/><path class="cls-7" d="M71.9,214.69a2.35,2.35,0,0,1,.93.91c.13.3,0,.58-.27.62a.54.54,0,0,1-.28,0,2.05,2.05,0,0,1-.58-.37,1.78,1.78,0,0,1-.38-.57c-.11-.31,0-.58.31-.61A.52.52,0,0,1,71.9,214.69Z"/><path class="cls-7" d="M73.69,216.39a2.66,2.66,0,0,1,.57.33,1.88,1.88,0,0,1,.44.49.41.41,0,0,1-.21.64.57.57,0,0,1-.29,0,2,2,0,0,1-.6-.31,1.4,1.4,0,0,1-.43-.53c-.15-.31,0-.59.25-.64A.64.64,0,0,1,73.69,216.39Z"/><path class="cls-7" d="M75.63,217.92l2.27,1.32,2.29,1.28a.46.46,0,0,1,.24.62.51.51,0,0,1-.57.12,15.32,15.32,0,0,1-2.48-1.12,17.12,17.12,0,0,1-2.22-1.57.46.46,0,0,1-.11-.66A.51.51,0,0,1,75.63,217.92Z"/><path class="cls-7" d="M82.26,221.34a.75.75,0,0,1,.75.23.47.47,0,0,1-.21.77h0a.82.82,0,0,1-.78-.25.46.46,0,0,1,.24-.75Z"/><path class="cls-7" d="M84.8,222a.75.75,0,0,1,.76.13.46.46,0,0,1-.1.79h0A.72.72,0,0,1,85,223a.76.76,0,0,1-.38-.19.46.46,0,0,1,.14-.78Z"/><path class="cls-7" d="M314.32,39.1q-43.77,7.11-68.08,39.83c-15.12,19.92-11.88,45.54,1.08,65.45,11.89,19,34.58,25.62,56.19,30.36C364,189,419.14,207,476.41,225c24.85,7.59,54,19,75.64,1.9l0,0a6.74,6.74,0,0,0,2.52-6.69c-3.44-16.79-25-26.81-35.11-42.34-13.11-20.06,48-68.15,29.12-89.88s-57.52-3.83-84.46-10.86a38.32,38.32,0,0,1-10.41-5C405.54,61.45,367.47,30.86,314.32,39.1Z"/><path class="cls-8" d="M528.87,239.93c-25.46,0-69.18-9.77-111.46-19.22-41.61-9.3-80.91-18.08-105.17-18.46l-1.89,0c-19.94,0-49.31,4.78-80.41,9.84-35.86,5.83-76.5,12.44-108,12.44-31.06,0-48.67-6.25-53.83-19.1-8-19.85,3.79-26.94,20.08-36.75,13.06-7.87,27.87-16.79,29.71-34.23,1.3-12.33.14-22.33-.79-30.36-1.74-15-2.61-22.5,11.84-31.39,6.23-3.83,14-5.46,25.89-5.46,4.55,0,9.19.22,14.09.46s10.1.49,15.21.49c12.44,0,28.43-1.35,41.65-11.83,2.57-2,5-4,7.42-6,23.05-18.64,39.7-32.11,95.23-38.87a73.67,73.67,0,0,1,8.79-.53C372.45,11,402.43,36.5,426.51,57c14.38,12.25,25.74,21.93,36.1,24.63a69.36,69.36,0,0,0,17.55,1.95c6.33,0,12.86-.54,19.17-1.06s12.23-1,17.94-1c13.26,0,21.35,2.79,27.05,9.33,7.83,9-4.17,27.24-14.75,43.33-11.56,17.6-22.49,34.22-14.77,46,4.46,6.82,10.75,12.48,16.84,18,12.77,11.49,22.85,20.57,15.6,37C545.89,238.24,539.36,239.93,528.87,239.93Z"/><rect class="cls-9" x="159.67" y="107.33" width="333.29" height="184.04" rx="3.85"/><rect class="cls-10" x="153.84" y="100.39" width="333.29" height="184.04" rx="3.85"/><rect class="cls-11" x="148.01" y="93.44" width="333.29" height="184.04" rx="2.12"/><path class="cls-12" d="M166.59,109.21h21.32V108H166.59Zm-5,.63h2.51v-2.51h-2.51Zm5,6.27h21.32v-1.25H166.59Zm-5,.63h2.51v-2.51h-2.51Zm5,6.27h21.32v-1.26H166.59Zm-5,.62h2.51v-2.51h-2.51Z"/><rect class="cls-13" x="161.57" y="134.73" width="94.66" height="91.76" rx="15.11"/><rect class="cls-13" x="267.9" y="134.73" width="94.66" height="91.76" rx="15.11"/><rect class="cls-13" x="374.23" y="134.73" width="94.66" height="91.76" rx="15.11"/><path class="cls-9" d="M445.72,116.72l-1.59-10.6a.58.58,0,0,0-.58-.51l-2.85,0v-1.31h2.86a1.9,1.9,0,0,1,1.87,1.63l.18,1.18,18,.11-1.85,8.36Zm.09-8.3,1,6.9,13.83-1,1.28-5.81Z"/><path class="cls-9" d="M462,119.21l-15.54-.09a1.15,1.15,0,0,1-.87-.4,1.14,1.14,0,0,1-.25-.92l.3-1.89,1.3.21-.27,1.69,15.33.08Z"/><path class="cls-14" d="M450.41,121.81a1.77,1.77,0,1,1-1.76-1.78A1.76,1.76,0,0,1,450.41,121.81Z"/><path class="cls-14" d="M459.72,121.87a1.78,1.78,0,0,1-3.55,0,1.78,1.78,0,1,1,3.55,0Z"/><line class="cls-15" x1="267.45" y1="232.84" x2="362.56" y2="232.84"/><path class="cls-16" d="M352,193c0,1.3-15.53,2.35-34.69,2.35s-34.69-1.05-34.69-2.35,15.53-2.35,34.69-2.35S352,191.65,352,193Z"/><path class="cls-17" d="M289.7,168.43s.7-1.76,6.77.55c3.3,1.25,7.59,4.27,15.95.62,0,0,2.54,8.45-8.11,7.71A17.7,17.7,0,0,1,289.7,168.43Z"/><path class="cls-18" d="M348.93,182l2.47.65c1.4.75,1.32,4.47.17,5.63,0,0-10,5.82-39.13,6.31-16.78-.32-28-3.19-28.51-4.33s-.56-3.69-.46-5.49l3.17-3.68Z"/><path class="cls-2" d="M289.7,168.43s-3.28,3.15-3.67,5.75c-.56,3.73-1.19,5.59-.79,9.36,0,0,9.46,3.68,25.22,3.87,7.78.09,18.93-.38,27.1-1.84,6.95-1.24,13.84-2.9,13.84-2.9-2-7-8.08-4.41-16.73-7.15-5.89-1.86-19.9-13.43-19.9-13.43s-3.24,2.41-3.42,3.65c-.11.78,1.44,2.82,1.44,2.82s-.39,6.64-7,7.08C299.32,176.07,289.7,168.43,289.7,168.43Z"/><path class="cls-19" d="M351.4,182.67a37.92,37.92,0,0,1-12.87,5c-7.81,1.51-20.56,2-28.5,1.71-8.78-.33-26.56-4.62-26.56-4.62"/><path class="cls-20" d="M312.79,168.56a22.33,22.33,0,0,1,4.54.42c2.8,1,10.9,7.45,17,8.21"/><path class="cls-18" d="M322.81,168.31l-2.7,4.37c-.37.52-2-.65-1.62-1.17l2.5-4.61C321.53,166.2,323.35,167.61,322.81,168.31Z"/><path class="cls-18" d="M326.75,170.63l-2.84,4.64c-.35.78-2.17,0-1.82-.81l2.84-5.23C325.47,168.53,327.29,169.93,326.75,170.63Z"/><path class="cls-18" d="M330.69,173l-2.88,4.66c-.31.65-2.09-.18-1.78-.84l2.84-5.23C329.41,170.85,331.23,172.26,330.69,173Z"/><path class="cls-18" d="M314.59,170.72a1,1,0,0,1,2.06.09l-.81,7.77c0,1.12-1.18,1.12-1.18,0Z"/><path class="cls-20" d="M307.41,187.47a8.57,8.57,0,0,1,4.27-5c3.73-1.75,12.58,1.57,17.47-1.15a51.53,51.53,0,0,0,5.15-4.1"/><path class="cls-20" d="M286.89,172.13s5.25,2.35,7.69,5.46c1.1,1.39,2.63,8.91,2.63,8.91"/><path class="cls-16" d="M243,193c0,1.3-15.53,2.35-34.69,2.35s-34.69-1.05-34.69-2.35,15.53-2.35,34.69-2.35S243,191.65,243,193Z"/><path class="cls-17" d="M180.69,168.43s.7-1.76,6.77.55c3.3,1.25,7.59,4.27,15.95.62,0,0,2.54,8.45-8.11,7.71A17.7,17.7,0,0,1,180.69,168.43Z"/><path class="cls-18" d="M239.92,182l2.47.65c1.4.75,1.32,4.47.17,5.63,0,0-10,5.82-39.13,6.31-16.77-.32-28-3.19-28.5-4.33s-.57-3.69-.47-5.49l3.17-3.68Z"/><path class="cls-21" d="M180.69,168.43s-3.28,3.15-3.67,5.75c-.56,3.73-1.19,5.59-.79,9.36,0,0,9.46,3.68,25.22,3.87,7.78.09,18.94-.38,27.1-1.84,6.95-1.24,13.84-2.9,13.84-2.9-2-7-8.08-4.41-16.73-7.15-5.88-1.86-19.89-13.43-19.89-13.43s-3.25,2.41-3.43,3.65c-.11.78,1.44,2.82,1.44,2.82s-.39,6.64-7,7.08C190.31,176.07,180.69,168.43,180.69,168.43Z"/><path class="cls-19" d="M242.39,182.67a37.92,37.92,0,0,1-12.87,5c-7.81,1.51-20.55,2-28.5,1.71-8.78-.33-26.56-4.62-26.56-4.62"/><path class="cls-22" d="M203.78,168.56a22.33,22.33,0,0,1,4.54.42c2.8,1,10.9,7.45,17,8.21"/><path class="cls-18" d="M213.8,168.31l-2.7,4.37c-.37.52-2-.65-1.62-1.17l2.5-4.61C212.53,166.2,214.35,167.61,213.8,168.31Z"/><path class="cls-18" d="M217.74,170.63l-2.84,4.64c-.35.78-2.17,0-1.82-.81l2.84-5.23C216.46,168.53,218.28,169.93,217.74,170.63Z"/><path class="cls-18" d="M221.68,173l-2.88,4.66c-.31.65-2.09-.18-1.78-.84l2.84-5.23C220.4,170.85,222.22,172.26,221.68,173Z"/><path class="cls-18" d="M205.58,170.72a1,1,0,0,1,2.06.09l-.81,7.77c0,1.12-1.18,1.12-1.18,0Z"/><path class="cls-22" d="M198.4,187.47a8.57,8.57,0,0,1,4.27-5c3.73-1.75,12.58,1.57,17.47-1.15a51.53,51.53,0,0,0,5.15-4.1"/><path class="cls-22" d="M177.88,172.13s5.25,2.35,7.69,5.46c1.1,1.39,2.63,8.91,2.63,8.91"/><path class="cls-16" d="M456,193c0,1.3-15.54,2.35-34.7,2.35s-34.69-1.05-34.69-2.35,15.53-2.35,34.69-2.35S456,191.65,456,193Z"/><path class="cls-23" d="M393.73,168.43s.69-1.76,6.77.55c3.29,1.25,7.58,4.27,15.94.62,0,0,2.54,8.45-8.1,7.71A17.7,17.7,0,0,1,393.73,168.43Z"/><path class="cls-18" d="M453,182l2.47.65c1.4.75,1.33,4.47.17,5.63,0,0-10,5.82-39.12,6.31-16.78-.32-28-3.19-28.51-4.33s-.57-3.69-.46-5.49l3.16-3.68Z"/><path class="cls-4" d="M393.73,168.43s-3.29,3.15-3.68,5.75c-.56,3.73-1.19,5.59-.79,9.36,0,0,9.46,3.68,25.22,3.87,7.78.09,18.94-.38,27.1-1.84,6.95-1.24,13.84-2.9,13.84-2.9-2-7-8.08-4.41-16.73-7.15-5.88-1.86-19.89-13.43-19.89-13.43s-3.25,2.41-3.42,3.65c-.12.78,1.43,2.82,1.43,2.82s-.39,6.64-7,7.08C403.34,176.07,393.73,168.43,393.73,168.43Z"/><path class="cls-19" d="M455.42,182.67a37.92,37.92,0,0,1-12.87,5c-7.8,1.51-20.55,2-28.5,1.71-8.78-.33-26.55-4.62-26.55-4.62"/><path class="cls-22" d="M416.81,168.56a22.41,22.41,0,0,1,4.55.42c2.8,1,10.9,7.45,17,8.21"/><path class="cls-18" d="M426.84,168.31l-2.71,4.37c-.37.52-2-.65-1.62-1.17L425,166.9C425.56,166.2,427.38,167.61,426.84,168.31Z"/><path class="cls-18" d="M430.78,170.63l-2.85,4.64c-.35.78-2.16,0-1.82-.81l2.85-5.23C429.5,168.53,431.32,169.93,430.78,170.63Z"/><path class="cls-18" d="M434.71,173l-2.88,4.66c-.3.65-2.09-.18-1.78-.84l2.84-5.23C433.43,170.85,435.25,172.26,434.71,173Z"/><path class="cls-18" d="M418.61,170.72a1,1,0,0,1,2.07.09l-.82,7.77c0,1.12-1.18,1.12-1.18,0Z"/><path class="cls-22" d="M411.43,187.47a8.56,8.56,0,0,1,4.28-5c3.72-1.75,12.57,1.57,17.47-1.15a52.75,52.75,0,0,0,5.15-4.1"/><path class="cls-22" d="M390.91,172.13s5.25,2.35,7.69,5.46c1.1,1.39,2.64,8.91,2.64,8.91"/><path class="cls-9" d="M278.15,151.62v.1c0,.54-.14.77-.45.77h-3c-.31,0-.44-.23-.44-.77v-.1c0-.54.13-.77.44-.77h3C278,150.85,278.15,151.08,278.15,151.62Z"/><path class="cls-9" d="M285.13,147.45c0,2.13-1.18,2.58-2.21,2.58s-2.22-.45-2.22-2.58,1.18-2.59,2.22-2.59S285.13,145.31,285.13,147.45Zm-2.92,0c0,.6.13,1.32.71,1.32s.69-.72.69-1.32-.12-1.27-.69-1.27S282.21,146.85,282.21,147.45Zm7-2.28a.56.56,0,0,1-.08.21l-5.27,10a.68.68,0,0,1-.65.43h-.64c-.21,0-.31-.1-.31-.2a.65.65,0,0,1,.07-.23l5.27-10a.7.7,0,0,1,.65-.43h.65C289.14,145,289.25,145,289.25,145.17Zm1.59,8.12c0,2.14-1.18,2.59-2.21,2.59s-2.22-.45-2.22-2.59,1.18-2.58,2.22-2.58S290.84,151.15,290.84,153.29Zm-2.92,0c0,.6.13,1.33.71,1.33s.69-.73.69-1.33-.12-1.26-.69-1.26S287.92,152.69,287.92,153.29Z"/><path class="cls-2" d="M341.26,201.92v1c1.45,0,4,.61,4,1.45,0,.38-.56,1.34-.81,1.34a8.54,8.54,0,0,0-3.2-1v5.91c2.26.81,4.85,1.73,4.85,5.23,0,2.89-1.88,4.72-4.85,5v1.27c0,.28-.15.41-.5.41s-.51-.13-.51-.41V220.9c-2.87-.08-5-1.17-5-1.85,0-.41.61-1.37.89-1.37a9.15,9.15,0,0,0,4.14,1.39v-6.55c-2.23-.86-4.7-1.75-4.7-5,0-2.49,1.83-4.21,4.7-4.52v-1.06c0-.28.15-.41.51-.41S341.26,201.64,341.26,201.92Zm-3.4,5.68c0,1.45,1,2.13,2.39,2.69v-5.45A2.62,2.62,0,0,0,337.86,207.6Zm3.4,11.4a3,3,0,0,0,2.54-3.1c0-1.6-1.14-2.36-2.54-3Z"/><rect class="cls-2" x="285.17" y="212.93" width="48.76" height="8.79" rx="3.93"/><path class="cls-24" d="M626.23,412.5H10.61a2.43,2.43,0,0,1-1.52-4.32l92.2-73.65a11.41,11.41,0,0,1,7.1-2.45H528.44a11.41,11.41,0,0,1,7.11,2.45l92.2,73.65A2.43,2.43,0,0,1,626.23,412.5Z"/><path class="cls-25" d="M623.87,382.38H13l94.73-75.67a11.09,11.09,0,0,1,6.9-2.37H522.25a11.09,11.09,0,0,1,6.9,2.37Z"/><polygon class="cls-10" points="563.32 375.62 73.52 375.62 142.48 311.1 494.36 311.1 563.32 375.62"/><polygon class="cls-7" points="557.31 375.62 79.53 375.62 146.79 313.87 490.04 313.87 557.31 375.62"/><path class="cls-10" d="M13,382.38H623.87a0,0,0,0,1,0,0v6a14.32,14.32,0,0,1-14.32,14.32H27.28A14.32,14.32,0,0,1,13,388.37v-6a0,0,0,0,1,0,0Z"/><line class="cls-26" x1="12.96" y1="390.28" x2="623.87" y2="390.28"/><rect class="cls-9" x="129.72" y="385.54" width="93.5" height="10.67" rx="4.78"/><rect class="cls-25" x="129.72" y="386.74" width="93.5" height="9.47" rx="4.24"/><polygon class="cls-10" points="518.12 322.96 552.84 353.65 571.43 353.65 571.43 351.21 518.12 320.51 518.12 322.96"/><polygon class="cls-27" points="518.12 320.51 552.84 351.21 571.43 351.21 532.84 320.51 518.12 320.51"/><ellipse class="cls-7" cx="94.14" cy="335.17" rx="14.61" ry="6.36"/><path class="cls-9" d="M104.36,334.69c0,2.2-4.58,4-10.22,4s-10.23-1.79-10.23-4,4.58-4,10.23-4S104.36,332.5,104.36,334.69Z"/><path class="cls-7" d="M95.35,333.79c0,.76-1.58,1.38-3.53,1.38s-3.52-.62-3.52-1.38,1.57-1.37,3.52-1.37S95.35,333,95.35,333.79Z"/><rect class="cls-25" x="152.47" y="47.45" width="364.35" height="29.9" rx="13.38"/><circle class="cls-25" cx="97.73" cy="62.4" r="14.95"/><circle class="cls-25" cx="132.58" cy="62.4" r="14.95"/><polygon class="cls-25" points="537.55 46.7 542.49 57.26 554.06 58.7 545.54 66.66 547.75 78.1 537.55 72.46 527.35 78.1 529.56 66.66 521.04 58.7 532.61 57.26 537.55 46.7"/><rect class="cls-11" x="152.47" y="42.28" width="364.35" height="29.9" rx="13.38"/><path class="cls-28" d="M240.42,51.73v.55c1.32,0,2.59.54,2.59,1s-.44,1.22-.75,1.22a5.64,5.64,0,0,0-1.84-.49v3c1.4.57,3.1,1.23,3.1,3.4a3.23,3.23,0,0,1-3.1,3.46v.75c0,.3-.14.41-.4.41s-.44-.11-.44-.41v-.73c-2.1-.07-3.39-.84-3.39-1.34s.57-1.26.85-1.26a6.64,6.64,0,0,0,2.54.82V58.88c-1.43-.54-3.17-1.16-3.17-3.42,0-1.94,1.43-3,3.17-3.16v-.57c0-.3.13-.41.41-.41S240.42,51.43,240.42,51.73Zm-1.93,3.62c0,.64.46,1,1.09,1.32V54.14A1.21,1.21,0,0,0,238.49,55.35ZM240.42,62a1.39,1.39,0,0,0,1-1.38,1.55,1.55,0,0,0-1-1.37Z"/><path class="cls-28" d="M248.53,59.4v.13c0,.49-.13.69-.42.69h-3.25c-.3,0-.43-.2-.43-.69V59.4c0-.49.13-.7.43-.7h3.25C248.4,58.7,248.53,58.91,248.53,59.4Z"/><path class="cls-28" d="M254.67,55c0,2.24-1.29,2.71-2.38,2.71s-2.37-.47-2.37-2.71,1.26-2.71,2.37-2.71S254.67,52.72,254.67,55Zm-3.3,0c0,.68.13,1.53.92,1.53s.93-.85.93-1.53-.12-1.5-.93-1.5S251.37,54.27,251.37,55Zm7.82-2.45a.48.48,0,0,1-.08.2l-5.92,10.74a.73.73,0,0,1-.69.41H252c-.23,0-.36-.08-.36-.2a.46.46,0,0,1,.08-.21l5.91-10.74a.74.74,0,0,1,.71-.4h.49C259.06,52.31,259.19,52.4,259.19,52.51Zm1.72,8.69c0,2.25-1.29,2.71-2.39,2.71s-2.36-.46-2.36-2.71,1.25-2.71,2.36-2.71S260.91,59,260.91,61.2Zm-3.3,0c0,.68.13,1.53.91,1.53s.94-.85.94-1.53-.12-1.51-.94-1.51S257.61,60.53,257.61,61.2Z"/><path class="cls-28" d="M225.71,65.05H196.39a6.86,6.86,0,0,1-6.87-6.87h0a6.86,6.86,0,0,1,6.87-6.86h29.32a6.86,6.86,0,0,1,6.86,6.86h0A6.86,6.86,0,0,1,225.71,65.05Z"/><circle class="cls-11" cx="97.73" cy="57.23" r="14.95"/><circle class="cls-11" cx="132.58" cy="57.23" r="14.95"/><polygon class="cls-29" points="537.55 41.53 542.49 52.09 554.06 53.52 545.54 61.49 547.75 72.93 537.55 67.29 527.35 72.93 529.56 61.49 521.04 53.52 532.61 52.09 537.55 41.53"/><polygon class="cls-9" points="99.58 48.12 90.12 57.49 99.58 67.04 101.38 65.24 93.72 57.49 101.38 49.92 99.58 48.12"/><polygon class="cls-9" points="131.22 67.04 140.68 57.67 131.22 48.12 129.42 49.92 137.08 57.67 129.42 65.24 131.22 67.04"/><path class="cls-9" d="M183.19,65.82l-6-6a7.61,7.61,0,0,0,1.29-4.28,7.91,7.91,0,0,0-7.88-7.8A8,8,0,0,0,165,50a7.73,7.73,0,0,0-2.28,5.49,7.9,7.9,0,0,0,7.88,7.8h0A7.82,7.82,0,0,0,175,62l6,6Zm-7.08-10.24a5.39,5.39,0,0,1-1.6,3.84A5.51,5.51,0,0,1,170.64,61h0a5.54,5.54,0,0,1-5.53-5.47,5.38,5.38,0,0,1,1.59-3.83,5.54,5.54,0,0,1,9.43,3.88Z"/><path class="cls-30" d="M496.58,57.58,493.19,61a1,1,0,0,0,0,1.46,1,1,0,0,0,1.45,0L498,59l3.39,3.41A1,1,0,0,0,502.88,61l-3.39-3.41,3.39-3.41a1,1,0,0,0-1.46-1.46L498,56.12l-3.39-3.41a1,1,0,0,0-1.45,0,1,1,0,0,0,0,1.46Zm1.45,11a11,11,0,1,1,11-11A11,11,0,0,1,498,68.6Z"/><path class="cls-2" d="M119.72,126.79a20.23,20.23,0,0,0-40.45,0h0c0,4.64-1.4,7.68,20.22,46.49C121.2,134.29,119.7,129.18,119.72,126.79Z"/><path class="cls-7" d="M99.49,136.21a8.94,8.94,0,1,1,8.94-8.94A8.95,8.95,0,0,1,99.49,136.21Z"/><path class="cls-24" d="M261.82,334.29l-8.21,14.22c-1.66,2.88.61,6.36,4.16,6.36h80.69c3.21,0,5.47-2.89,4.47-5.69L337.81,335a4.69,4.69,0,0,0-4.47-3H266A4.8,4.8,0,0,0,261.82,334.29Z"/><path class="cls-9" d="M278.34,330.34a7.17,7.17,0,1,1-7.17-7.16A7.17,7.17,0,0,1,278.34,330.34Z"/><circle class="cls-31" cx="271.17" cy="330.34" r="4.31"/><path class="cls-32" d="M268.34,329.56l2.46-6.48a.88.88,0,0,1,.83-.58h8.55a.89.89,0,0,1,.66,1.5l-7.7,8.31a2.4,2.4,0,0,1-2.52.65l-.77-.25A2.41,2.41,0,0,1,268.34,329.56Z"/><circle class="cls-9" cx="271.17" cy="330.34" r="1.65"/><path class="cls-9" d="M319.85,330.34a7.17,7.17,0,1,0,7.17-7.16A7.17,7.17,0,0,0,319.85,330.34Z"/><path class="cls-31" d="M322.71,330.34A4.31,4.31,0,1,0,327,326,4.31,4.31,0,0,0,322.71,330.34Z"/><path class="cls-32" d="M329.85,329.56l-2.45-6.48a.91.91,0,0,0-.84-.58H318a.89.89,0,0,0-.65,1.5l7.69,8.31a2.41,2.41,0,0,0,2.53.65l.77-.25A2.41,2.41,0,0,0,329.85,329.56Z"/><circle class="cls-9" cx="327.02" cy="330.34" r="1.65"/><path class="cls-2" d="M252.43,263.76a1.07,1.07,0,0,1-1-.64c-2.43-5.63-6.47-14.79-7.2-15.94-1.09-.79-9.27-3.7-16.67-6.11a1.05,1.05,0,0,1-.74-1,1.07,1.07,0,0,1,.74-1l13.16-4.26a1.15,1.15,0,0,1,.61,0c1.26.35,12.37,3.43,14.76,5.65,1.9,1.76,7.5,13.44,8.6,15.76a1.06,1.06,0,1,1-1.92.91c-2.48-5.23-6.89-14-8.13-15.12-1.48-1.37-9-3.79-13.57-5.06l-9.76,3.16c6.8,2.26,13.83,4.78,14.58,5.78.89,1.18,6.39,13.89,7.49,16.42a1.07,1.07,0,0,1-1,1.49Z"/><polygon class="cls-33" points="249.55 258.38 261.53 250.94 353.95 255.46 356.07 261.25 249.55 258.38"/><path class="cls-2" d="M248.67,258.57l14,46.13a3.19,3.19,0,0,0,3.16,2.26l77.36-2.39a3.19,3.19,0,0,0,3-2.44l9.88-40.88Z"/><path class="cls-34" d="M269.48,277.86c5,10.4,16,12.5,26.58,12,22.6-1.12,42.35-9.95,55.59-28.7l-82.3-2.05c-1.21,0-1.81,7.87-1.87,8.9A20.11,20.11,0,0,0,269.48,277.86Z"/><path class="cls-2" d="M343,330.14a29.9,29.9,0,0,0-4.3-9.47c-.73-1-1.93-2.13-4.74-2.13H269.89c-1,0-2.81-.17-3.58-1.29s-.3-2.71.17-3.91a73.28,73.28,0,0,1,3.59-7.94l-2.51.21a58.4,58.4,0,0,0-3.06,6.95c-1,2.45-.94,4.43.06,5.89s2.83,2.21,5.33,2.21h3.44v1.44a1.61,1.61,0,0,0,1.61,1.61h1.23a1.61,1.61,0,0,0,1.61-1.61v-1.44h42.36v1.44a1.61,1.61,0,0,0,1.61,1.61H323a1.61,1.61,0,0,0,1.61-1.61v-1.44H334c1.94,0,2.58.66,3,1.27a28,28,0,0,1,3.95,8.73,2,2,0,0,1-.15,1.7,3.57,3.57,0,0,1-2.48.86c-14.85.33-46.86.15-64.06,0l-10.83,0c-2.61,0-4.55-.75-5.46-2.1s-.86-3.22.07-5.54c2.05-5.1,8.06-20.3,8.06-20.3l-2-.78s-6,15.19-8.06,20.29c-1.52,3.79-.77,6.18.14,7.52,1.32,2,3.89,3,7.22,3l6,0v1.39a1.61,1.61,0,0,0,1.62,1.61h1.22a1.62,1.62,0,0,0,1.62-1.61v-1l.31-.33c9.8.06,24.41.14,37.93.14,3.66,0,7.25,0,10.64,0v1.25a1.61,1.61,0,0,0,1.61,1.61h1.23a1.61,1.61,0,0,0,1.61-1.61v-1.27c4.24,0,8-.08,11.11-.15a5.32,5.32,0,0,0,4.12-1.69A4,4,0,0,0,343,330.14Z"/><path class="cls-7" d="M353,260.39l-9.58,39.54a2.5,2.5,0,0,1-2.35,1.91L304.91,303c2.8-3,5.59-6.07,8.34-9.14.2-.23.27-.51.14-.64s-.42-.06-.64.17q-4.46,4.61-8.85,9.28h0a1.1,1.1,0,0,0-.23.36l-31.89,1q4.47-4.82,8.86-9.69c.21-.24.28-.53.16-.66s-.43-.05-.66.19q-4.68,4.83-9.26,9.72h0a1.3,1.3,0,0,0-.28.47l-2.88.09a2.51,2.51,0,0,1-2.47-1.77l-6.37-21c1.65-1.79,3.27-3.59,4.87-5.42a.35.35,0,0,0,0-.47.34.34,0,0,0-.48,0c-1.59,1.59-3.14,3.21-4.69,4.84l-6.83-22.55-1,.31,13.52,44.59a3.57,3.57,0,0,0,3.41,2.52h.11l73.33-2.27a3.57,3.57,0,0,0,3.35-2.72L354,260.64Z"/><path class="cls-7" d="M264.58,275.05a4.6,4.6,0,0,0,.74-.65,3.81,3.81,0,0,0,.59-.78.4.4,0,0,0-.55-.52,4.2,4.2,0,0,0-.74.65,4.1,4.1,0,0,0-.59.78.41.41,0,0,0,0,.39A.4.4,0,0,0,264.58,275.05Z"/><path class="cls-7" d="M266.55,272.93a.38.38,0,0,0,.26-.12.37.37,0,0,0,.1-.27h0a.53.53,0,0,0-.55-.5.49.49,0,0,0-.26.12.46.46,0,0,0-.1.27h0A.53.53,0,0,0,266.55,272.93Z"/><path class="cls-7" d="M275.39,263.43q3.24-3.29,6.39-6.65h0a.48.48,0,0,0-.71-.66q-3.13,3.39-6.19,6.85a.34.34,0,0,0,.5.46Z"/><path class="cls-7" d="M274.28,264.68a.43.43,0,0,0,.26-.13.41.41,0,0,0,.1-.26v0a.54.54,0,0,0-.55-.5.4.4,0,0,0-.26.13.36.36,0,0,0-.1.26h0A.53.53,0,0,0,274.28,264.68Z"/><path class="cls-7" d="M273.1,265.94a.4.4,0,0,0,.26-.13.42.42,0,0,0,.11-.26v0a.53.53,0,0,0-.54-.5.4.4,0,0,0-.26.13.37.37,0,0,0-.11.26h0A.54.54,0,0,0,273.1,265.94Z"/><path class="cls-7" d="M271.93,267.19a.38.38,0,0,0,.26-.12.36.36,0,0,0,.1-.26v0a.53.53,0,0,0-.55-.5.49.49,0,0,0-.26.12.41.41,0,0,0-.1.27h0A.52.52,0,0,0,271.93,267.19Z"/><path class="cls-7" d="M267.9,271.52c.55-.47,1.05-1,1.55-1.51a18.37,18.37,0,0,0,1.39-1.65.36.36,0,0,0,0-.46.38.38,0,0,0-.53,0c-.55.46-1.05,1-1.55,1.5s-1,1.07-1.39,1.65a.38.38,0,0,0,.55.52Z"/><path class="cls-7" d="M281.47,292.72c.08.21.39.19.68,0a13.45,13.45,0,0,0,1.28-1.22,12.27,12.27,0,0,0,1.13-1.37.64.64,0,0,0,.14-.55c-.09-.21-.39-.19-.69,0a14.76,14.76,0,0,0-1.28,1.22,15,15,0,0,0-1.13,1.37A.63.63,0,0,0,281.47,292.72Z"/><path class="cls-7" d="M285.72,288.85a1,1,0,0,0,.4-.28,1.11,1.11,0,0,0,.26-.42v0c.09-.4-.15-.63-.55-.49a1,1,0,0,0-.41.28,1,1,0,0,0-.25.42v0C285.07,288.77,285.32,289,285.72,288.85Z"/><path class="cls-7" d="M301.73,271.66q5.79-6,11.5-12.12h0c.33-.35.43-.78.23-1s-.61,0-.94.31q-5.67,6.12-11.29,12.31c-.22.24-.29.54-.16.67S301.5,271.9,301.73,271.66Z"/><path class="cls-7" d="M299.7,273.89a1.07,1.07,0,0,0,.4-.28,1.19,1.19,0,0,0,.26-.42v0c.09-.41-.15-.63-.55-.5a1.24,1.24,0,0,0-.41.28,1.09,1.09,0,0,0-.25.43h0C299.05,273.8,299.3,274,299.7,273.89Z"/><path class="cls-7" d="M297.57,276.17a1.11,1.11,0,0,0,.41-.28,1.17,1.17,0,0,0,.25-.42v0c.1-.41-.15-.63-.55-.5a1.2,1.2,0,0,0-.41.28,1.22,1.22,0,0,0-.25.43h0C296.92,276.08,297.17,276.3,297.57,276.17Z"/><path class="cls-7" d="M295.45,278.45a1.15,1.15,0,0,0,.4-.28,1.12,1.12,0,0,0,.25-.42v0c.09-.41-.16-.63-.56-.5a1.15,1.15,0,0,0-.4.28,1.09,1.09,0,0,0-.25.43h0C294.8,278.36,295.05,278.58,295.45,278.45Z"/><path class="cls-7" d="M288.15,286.27c1-.89,1.85-1.84,2.74-2.78s1.76-1.92,2.59-2.93c.19-.23.26-.51.16-.65s-.44-.11-.71.14c-.95.89-1.85,1.84-2.74,2.78s-1.76,1.92-2.59,2.93c-.19.24-.26.51-.16.66S287.88,286.53,288.15,286.27Z"/><path class="cls-7" d="M314.7,292.29a15.07,15.07,0,0,0,1.23-1.17,12.45,12.45,0,0,0,1.07-1.31.58.58,0,0,0,.12-.53c-.09-.21-.39-.2-.67,0a13.49,13.49,0,0,0-1.23,1.16,14.91,14.91,0,0,0-1.07,1.31.6.6,0,0,0-.12.54C314.12,292.52,314.41,292.51,314.7,292.29Z"/><path class="cls-7" d="M318.1,288.63a1.11,1.11,0,0,0,.4-.26,1.09,1.09,0,0,0,.23-.41v0c.09-.39-.16-.61-.55-.49a1.05,1.05,0,0,0-.63.67v0C317.47,288.53,317.71,288.75,318.1,288.63Z"/><path class="cls-7" d="M333.39,272.22q5.53-5.76,11-11.58h0c.31-.34.4-.75.2-.93s-.6-.06-.91.27q-5.43,5.85-10.78,11.77c-.2.23-.27.51-.14.64S333.17,272.45,333.39,272.22Z"/><path class="cls-7" d="M331.45,274.35a1,1,0,0,0,.39-.27.93.93,0,0,0,.24-.41v0c.09-.39-.16-.61-.55-.49a1,1,0,0,0-.39.26,1.06,1.06,0,0,0-.24.41v0C330.82,274.24,331.06,274.47,331.45,274.35Z"/><path class="cls-7" d="M329.42,276.52a1.05,1.05,0,0,0,.63-.67v0c.09-.39-.16-.61-.55-.49a1.05,1.05,0,0,0-.63.67h0C328.79,276.42,329,276.64,329.42,276.52Z"/><path class="cls-7" d="M327.39,278.7a1,1,0,0,0,.39-.26A1.06,1.06,0,0,0,328,278v0c.09-.4-.16-.62-.55-.5a1,1,0,0,0-.39.27.93.93,0,0,0-.24.41h0C326.76,278.6,327,278.82,327.39,278.7Z"/><path class="cls-7" d="M320.43,286.17c.91-.85,1.76-1.75,2.62-2.66s1.68-1.83,2.46-2.8a.57.57,0,0,0,.15-.63c-.13-.17-.44-.12-.7.12-.91.85-1.76,1.76-2.62,2.66s-1.68,1.83-2.46,2.8c-.18.22-.25.49-.14.63S320.17,286.41,320.43,286.17Z"/><polygon class="cls-34" points="276.77 333.29 280.53 319.95 320.48 319.95 322.65 333.29 276.77 333.29"/><circle class="cls-9" cx="266.38" cy="346.45" r="8.42"/><path class="cls-31" d="M271.45,346.45a5.07,5.07,0,1,1-5.07-5.06A5.06,5.06,0,0,1,271.45,346.45Z"/><path class="cls-32" d="M263.05,345.53l2.89-7.62a1.06,1.06,0,0,1,1-.67H277a1,1,0,0,1,.77,1.76l-9.05,9.76a2.85,2.85,0,0,1-3,.77l-.9-.3A2.84,2.84,0,0,1,263.05,345.53Z"/><path class="cls-9" d="M268.32,346.45a1.94,1.94,0,1,1-1.94-1.94A1.94,1.94,0,0,1,268.32,346.45Z"/><circle class="cls-9" cx="330.72" cy="346.45" r="8.42"/><path class="cls-31" d="M325.65,346.45a5.07,5.07,0,1,0,5.07-5.06A5.06,5.06,0,0,0,325.65,346.45Z"/><path class="cls-32" d="M334,345.53l-2.88-7.62a1.06,1.06,0,0,0-1-.67H320.13a1,1,0,0,0-.77,1.76l9.05,9.76a2.85,2.85,0,0,0,3,.77l.9-.3A2.83,2.83,0,0,0,334,345.53Z"/><path class="cls-9" d="M328.78,346.45a1.94,1.94,0,1,0,1.94-1.94A1.94,1.94,0,0,0,328.78,346.45Z"/><circle class="cls-21" cx="352.85" cy="257.5" r="19.05" transform="translate(21.7 542.36) rotate(-76.82)"/><path class="cls-9" d="M356.39,247.35v16.81h3.19c.63,0,.9.44.9,1.49v.51c0,1-.27,1.49-.9,1.49H348c-.63,0-.9-.45-.9-1.49v-.51c0-1,.27-1.49.9-1.49h4V250.75l-4.06.6c-.78,0-1-1.67-1-2.51a.82.82,0,0,1,.78-.84l7.43-1.37C355.64,246.63,356.39,247,356.39,247.35Z"/><polygon class="cls-35" points="276.52 243.15 276.52 258.16 311.96 259.08 311.96 241.62 276.52 243.15"/><polygon class="cls-36" points="311.96 241.62 311.96 259.08 328.85 259.63 328.85 244.67 311.96 241.62"/><polygon class="cls-21" points="275.48 240.31 312.79 238.79 312.79 243.67 275.48 245.22 275.48 240.31"/><polygon class="cls-35" points="312.79 243.67 330.08 246.63 330.08 242.01 312.79 238.79 312.79 243.67"/><ellipse class="cls-24" cx="194.59" cy="346.31" rx="51.26" ry="2.95"/><path class="cls-37" d="M219.34,312.47c.83,8.24,7.75,20.29,10.44,27,.79,2,4.54.87,4.12-1.22-1.44-7.12-2.44-21.54-3.1-28.9C230,300.71,218.55,304.63,219.34,312.47Z"/><path class="cls-1" d="M229.89,339.46a7.59,7.59,0,0,0,.56,5.31c-.25.11-.06,1.13.38,1.34s4.33.2,5.1-.41a.83.83,0,0,0,0-.68s1,.36,3.65-.15a13.65,13.65,0,0,0,5.2-2c.32-.2.1-.92-.26-.8,0,0-.23-1.88-1.8-1.78a11.83,11.83,0,0,1-7.17-2.09,6,6,0,0,0-2.13-.93A3.63,3.63,0,0,0,229.89,339.46Z"/><g class="cls-38"><path class="cls-39" d="M230.45,344.77a30.77,30.77,0,0,0,5.47-.08s6.16-.11,8.58-2.58a2.88,2.88,0,0,1,4.52.16l-10.08,8-6.58-.52-2.94-2.48S229.17,344.63,230.45,344.77Z"/><path class="cls-37" d="M229.4,339.64a2.54,2.54,0,0,0,2.7,1.15c1.81-.38,2-1.5,1.58-3.43S227.5,336.7,229.4,339.64Z"/></g><path class="cls-40" d="M192.39,253.5s11.84,21.31,15.75,30S217,313.73,217,313.73s9.73,2,14.84-2.52c0,0-1.64-22.69-4.42-32.88s-13.34-35.2-13.34-35.2C209.85,234.15,188.14,244.52,192.39,253.5Z"/><path class="cls-31" d="M202.08,270.17a39.18,39.18,0,0,1,3.34-8.08c2.09-3.66,7.13-6.53,7.68-6.08,1,.77-6.57,6.35-8,10.38,0,0,8.37-6.09,8.95-5.28S205.37,266.88,202.08,270.17Z"/><path class="cls-17" d="M200.83,201c1.95,9,5,21,11.67,26.87S233.69,237,234.38,237c1.62.37,3.35-8.16,2.07-9.15s-12.7-5.59-14.72-7.55c-3.62-3.49-2.08-24.77-6.18-29.41S198.55,190.49,200.83,201Z"/><path class="cls-41" d="M237.31,229.35s5.08,4.23,5.39,5.38.18,3.05-.24,3.53-3.52,2-4.71,1.22a20.26,20.26,0,0,1-2.82-2.67l.56-2.08s-.39,1.42-3.47-.51S234.38,226.43,237.31,229.35Z"/><path class="cls-37" d="M166.41,306.35c-6.14,5.56-11.72,18.3-15.54,24.45-1.12,1.82,2,4.17,3.43,2.59,4.87-5.39,15.88-14.75,21.41-19.65C182.21,308,172.25,301.06,166.41,306.35Z"/><path class="cls-1" d="M151.56,330.18a7.66,7.66,0,0,0-4.15,3.37c-.23-.14-1,.57-.91,1.06s2.2,3.73,3.12,4.05a.85.85,0,0,0,.56-.4s.21,1,2.12,3a13.76,13.76,0,0,0,4.47,3.3c.35.15.83-.42.54-.66,0,0,1.44-1.22.5-2.48a11.89,11.89,0,0,1-2.15-7.15,6,6,0,0,0-.38-2.3A3.67,3.67,0,0,0,151.56,330.18Z"/><g class="cls-42"><path class="cls-39" d="M147.41,333.55a30.39,30.39,0,0,0,3.06,4.54s3.44,5.1,6.84,5.79a2.89,2.89,0,0,1,2.33,3.88l-12.23-4.08-3.15-5.8.47-3.82S146.84,332.4,147.41,333.55Z"/><path class="cls-37" d="M151.15,329.87a2.55,2.55,0,0,0,.5,2.89c1.31,1.31,2.34.86,3.74-.54S152.57,326.68,151.15,329.87Z"/></g><path class="cls-9" d="M179.84,245.51s1.64,31.24-1.86,39.42-12.62,21.5-12.62,21.5a14,14,0,0,0,11.74,8.87s13.93-9.81,19.39-24.67,10-31.22,7.84-43.34C203.09,240.48,181.6,235.55,179.84,245.51Z"/><path class="cls-43" d="M183.91,245.22s.2,26-1,36.08c-1.18,9.77-16.19,27.75-16.19,27.75"/><path class="cls-7" d="M214.82,191.57c2.4,4.78-1.89,23-1.89,30.9a130.26,130.26,0,0,0,2,21.33,2.52,2.52,0,0,1-1.19,2.77A31.23,31.23,0,0,1,202,250.19c-11.76,1.13-17.44-.93-20.11-1.94a3.27,3.27,0,0,1-2.08-3.54c.59-4,2.27-13.68.84-22.62-1.88-11.69-4.94-27.6.54-32.51s15.76-8,15.76-8S211.84,185.65,214.82,191.57Z"/><path class="cls-31" d="M199.47,176.64s-2.63-.44-6.25-4.93c-2.37-3-5.67-16.28,4.78-18.3s13.54,5.05,14,9.67-4.71,8.43-7.06,10.1S199.47,176.64,199.47,176.64Z"/><path class="cls-37" d="M196.92,171.27a30.32,30.32,0,0,1-1.51,7.19,11.57,11.57,0,0,1-4,5.46c-1.51,1.34,6,9.32,12.7,11.34,0,0,4.85-5.91,2.62-9.2s-4-3.59-3.19-8c.7-3.84,1.11-6,1.11-6Z"/><path class="cls-44" d="M196.92,171.27s-.33,3,.87,4.27,3.36,4.37,8.27,4c6.56-.48,4-10.89,4-10.89a23.23,23.23,0,0,0,0-7.29c-.69-3.29-7.18-5-12.47-3.4,0,0-1.52,1.44-.93,7.9a2,2,0,0,0-2.51-.33c-1.17.63-1.29,2.13-.9,3.55C193.74,170.79,195.51,172.25,196.92,171.27Z"/><path class="cls-45" d="M196.38,170.65l-.58-1.54,1-.41s-.64-2.87-2.24-1.81C193.23,167.76,194.73,171.23,196.38,170.65Z"/><path class="cls-31" d="M197.07,168.36a41,41,0,0,0-.54,5.84c.09,1.8,1.87,7.41,10.08,6.91s5.24-9.34,3.86-10a2.41,2.41,0,0,1-.82,2A2.18,2.18,0,0,0,207,172c-1.16-.66-2.5-.25-3.91.59l-1,.71a5.17,5.17,0,0,1-4.17-4.81Z"/><path class="cls-7" d="M204.14,173.44s4.31,0,4.41.29-.51.88-2.2.88A2.31,2.31,0,0,1,204.14,173.44Z"/><path class="cls-45" d="M204,173.36c.22-.12.2,0,.27-.06h.45l.61,0,1.2,0c.41,0,.81,0,1.21.09a4.49,4.49,0,0,1,.61.09,1.42,1.42,0,0,1,.16.05.19.19,0,0,1,.1.19.47.47,0,0,1-.16.3,3.51,3.51,0,0,1-2.35.58,2.78,2.78,0,0,1-1.19-.32,2.14,2.14,0,0,1-.52-.37,2.39,2.39,0,0,1-.22-.23l-.09-.13,0-.07,0,0v0S204,173.4,204,173.36Zm.23.15c.05,0,0-.15,0-.12v.05l0,.06.08.11a1.24,1.24,0,0,0,.18.22,2,2,0,0,0,.45.36,2.6,2.6,0,0,0,1.1.32,3.47,3.47,0,0,0,2.25-.49c.39-.39-.3-.33-.63-.39l-1.2-.06-1.21,0h-1.05S204.13,173.63,204.25,173.51Z"/><path class="cls-31" d="M204.7,168.11c0,.36-.51.39-1.09.34s-1.05-.15-1-.52.53-.62,1.11-.57S204.73,167.75,204.7,168.11Z"/><path class="cls-31" d="M200.84,166.37a18.55,18.55,0,0,1,2.19-.52c.53,0,2.54.33,2.71.13a2.77,2.77,0,0,0,.3-.87,22.29,22.29,0,0,0-3.3-.12A3.76,3.76,0,0,0,200.84,166.37Z"/><path class="cls-31" d="M210,168.56c0,.36-.5.39-1.09.34s-1-.16-1-.52.53-.62,1.11-.57S210.07,168.19,210,168.56Z"/><path class="cls-31" d="M210.79,167.2c0,.06-.72-.86-1.08-.93s-2.1.08-2.19-.14a3.72,3.72,0,0,1-.08-.9,14.74,14.74,0,0,1,2.68.4A2.52,2.52,0,0,1,210.79,167.2Z"/><path class="cls-46" d="M207,171.67s-1.34,0-1.31-.42,2.85-.77,3-.5S207.65,171.5,207,171.67Z"/><path class="cls-45" d="M207.28,166.06a6.84,6.84,0,0,0-.2,2.3c.21.61,1.44,2,1.47,2.27s-1.4,1-1.51,1,2-.29,2-.95-1.66-2.33-1.72-2.66S207.28,166.06,207.28,166.06Z"/><path class="cls-31" d="M197.66,168.86c.42-.29,1.11-2.72.38-5.07a2.92,2.92,0,0,1,2.17-3.78c1.33-.15,5.67,1.08,7.39.87,3.76-.46,6.67-1.57,6.66-2.26s-2.76,0-2.76,0,4.2-1.07,3.82-4.57a17.29,17.29,0,0,1-6-.73c-2.81-1-9.55-2.09-13.13.57-2.35,1.74-4,7.42-.91,10.31C196.73,165.53,196.86,169.4,197.66,168.86Z"/><path class="cls-47" d="M207.44,191.64s-1.79,35.58-1.4,38.93-.26,16.2,7.86,18.68c0,0-3.63-18.56-3.11-29.71S207.44,191.64,207.44,191.64Z"/><path class="cls-2" d="M204.84,183.59a90.46,90.46,0,0,1,3.3,25.66c-.19,14.53-.78,44.32,10,43.63,0,0-4.53-18.3-4.26-24.95s3.88-31.09,2.56-35.27C214.49,186.59,204.84,183.59,204.84,183.59Z"/><path class="cls-2" d="M192.51,183.07s7.24,11.34,9.57,30.55c1.1,9.17-.14,23.68-1.52,32.95-1.59,10.68-22.49,10.66-23.83,7.86s4.65-20.52,2.78-30.6-3-26.51-.74-31.92S192.51,183.07,192.51,183.07Z"/><path class="cls-48" d="M182,202.32s3.55,17.15,3.1,26.23S181.78,256,181.78,256"/><path class="cls-17" d="M179.52,193.29a17.19,17.19,0,0,0-.94,4.48c2,15,10.37,31.72,23.29,37.73a145.19,145.19,0,0,0,.61-14.58c-8.65-8.63-15.27-19.83-20.34-30.88A8.71,8.71,0,0,0,179.52,193.29Z"/><path class="cls-37" d="M230.12,232.34s6.45,1.5,7.23,2.4,2.1,3.95,2,4.57-3.56,2-5,1.76a10.68,10.68,0,0,1-3-1c.21-.76.15-1.44-.64-1.69s-1.72.2-3.18.85C224.2,240.72,226.2,231,230.12,232.34Z"/><path class="cls-34" d="M178.48,201.16c1.73,9.6,14,23.92,19.26,28.42,4.6,3.95,27.34,10.66,28.34,10.71,2.33.5,5.3-7.89,3.49-9s-22.08-10.41-24.27-12.85-10.24-24.11-16-29.06S176.53,190.33,178.48,201.16Z"/><path class="cls-49" d="M548.35,185.73c9.31-13.43,18.93-10.52,22.46-4.86s1,14.07-6.37,21c-5.28,5.29-15.84,9-24.32,11-5.94-6.39-12.68-15.31-14.13-22.64-2.26-9.86.29-18.27,6.37-21S548.05,169.39,548.35,185.73Z"/><g class="cls-50"><path class="cls-51" d="M570.81,180.87c-3-4.83-10.47-7.65-18.38,0,6.74-5.32,16.4-5.42,17.24,4.3.89,10.21-7.29,17.18-16.71,15.4-12.36-2.34-9.32-12.71-15.2-17.78-4.59-3.86-10,2-10.28,6.76A28.33,28.33,0,0,0,528,196c2.78,5.91,7.69,12.14,12.15,16.93,8.48-2,19-5.7,24.32-11C571.79,194.94,574.34,186.54,570.81,180.87Z"/></g><ellipse class="cls-24" cx="434.35" cy="345.28" rx="51.26" ry="2.95"/><path class="cls-2" d="M443.79,333.73a28,28,0,0,1,2.48,2.39c.36.52,1.73,4.39,1.73,4.39a3.32,3.32,0,0,1-2.14,1.48l-1.73-2.22s-.88,3.88-1.77,5.14c-1.08,1.52-7.25,3.28-8.17,2.82,0,0-1.14-2.26.8-3.5,3.57-2.29,3.66-7.1,3.66-7.1A3.36,3.36,0,0,1,443.79,333.73Z"/><g class="cls-52"><path class="cls-17" d="M433.46,347.39c.11-.06,7.9-1.11,8.82-3.41.72-1.79,1.2-4.83,1.61-5.18s2.38-2.68,2.38-2.68l3.12,5.43-11.73,9.87Z"/></g><path class="cls-53" d="M437.2,342.21l1.06.22a3.65,3.65,0,0,0,.69-2l-1-.36a.38.38,0,0,0-.47.22l-.51,1.4A.37.37,0,0,0,437.2,342.21Z"/><path class="cls-37" d="M430.1,226.27c0-.37-9.88,43.55-9.53,55.35.22,7.36,14,41.21,18.08,55.51.78,2.75,5.05-.47,4.72-3.32-1.61-13.69-1.51-20.9-7.56-50.65-.94-4.64,15.69-46.18,14.38-55.91S435.3,212.22,430.1,226.27Z"/><path class="cls-54" d="M450.19,227.25c-1.32-9.73-14.89-15-20.09-1,0-.35-9,39.38-9.51,53.41,4.43-3.37,10.33-1.59,15.43,1.09C438,270.63,451.37,236,450.19,227.25Z"/><path class="cls-2" d="M458,336.59a28,28,0,0,1,1.47,3.11c.15.62.05,4.72.05,4.72A3.25,3.25,0,0,1,457,345l-.83-2.68s-1.27,2.62-2.55,3.48c-1.55,1-7.06,2.32-8,1.86,0,0-1.28-2.46.77-3.51,5.12-2.62,5.57-6.25,5.57-6.25A3.36,3.36,0,0,1,458,336.59Z"/><g class="cls-55"><path class="cls-17" d="M445,347.46c.12,0,6.42-.62,7.93-1.83s2.84-4.09,3.36-4.27,3.17-1.66,3.17-1.66l1,6.19L446,350.94Z"/></g><path class="cls-53" d="M449,342.54l.91.59a3.64,3.64,0,0,0,1.34-1.59l-.84-.71a.36.36,0,0,0-.51,0L449,342A.35.35,0,0,0,449,342.54Z"/><path class="cls-37" d="M439.84,229.11c-.08,3.82.51,44.59,4,55.75,2.2,6.95,6.82,40.33,8.39,51.74.57,4.16,5.08,4.16,5.41.18,1.22-14.77,6-35.31.57-53.36-1.35-4.5,4.92-51.05,1-59.91S440.13,215,439.84,229.11Z"/><path class="cls-54" d="M458.06,280.4c.12-11.51,4.68-49,1.23-56.89-3.89-8.87-19.16-8.54-19.45,5.6-.07,3.52.42,38.33,3.26,52.55C447.51,279.16,453.08,279,458.06,280.4Z"/><path class="cls-2" d="M430.54,221.5l-.44,4s-7.17,18.18-10.26,47.69c7.65-2.12,22.09,4.95,43.52,1.94,0,0,8.47-37.79-6.27-54.6S431.32,212.6,430.54,221.5Z"/><path class="cls-17" d="M430.57,225.35S430,231,439.79,232s19.5-6.08,19.25-8.16S430.57,225.35,430.57,225.35Z"/><path class="cls-56" d="M454.73,222.55s11.22,18.65,4.32,51.93"/><path class="cls-37" d="M390.69,210.83a37.27,37.27,0,0,0-4.84-.06,26.15,26.15,0,0,0-2.8,1.22c-1.12.57,0,1.37.83,1.3A14.9,14.9,0,0,1,386,213a4.06,4.06,0,0,1,.73.19,16.79,16.79,0,0,1-3.7,2.22c-.8.31-1.52.52-2.68.89-.51.17-.43.84.16.95a6.93,6.93,0,0,0,3.09-.39c.5-.19,1-.39,1.46-.61a9.94,9.94,0,0,1-1.59.91c-.76.35-1.52.49-2.62.9-.51.18-.37.77.22.86a5.62,5.62,0,0,0,.84,0c-.21.27-.06.69.41.75a5.47,5.47,0,0,0,1.25-.1.49.49,0,0,0,.44.29c4.14,0,6.6-2.25,8.87-2.77C396.5,213.53,393.39,211.34,390.69,210.83Z"/><path class="cls-40" d="M438.77,181.37c-2.81-1.59-7.61-2.11-11.38,3.27s-5.45,18.05-9.46,22.33c-2.38,2.56-24.07,3.29-25.62,4.07-1,.5-.4,5.33-.07,6.23.69,1.87,24.17,2.87,30.56.35S444.8,184.8,438.77,181.37Z"/><path class="cls-31" d="M429.69,157.4c.17-2,.16-5.23,2.5-8.06s11.47-5.67,16.25-2.36c5.88,4.07,4,7.88,11.29,10.84s5.11,6.24,3,9.58-1.36,3.91,2,7.42,7.88,12.26,0,17.25-25,1.72-31.8-4.87,1.24-10.93-.66-14.86-4.13-3.06-4.13-7.24C428.19,161.91,429.42,160.43,429.69,157.4Z"/><path class="cls-9" d="M444.48,176.7s-15.55,2.6-16.07,7.34c-.22,2,2.49,6,1.79,8-1,3-2.65,4.7.35,11.77,2.43,5.72-1.74,17.54-1.61,19,.47,5.26,8.82,6.23,12.24,6.15,4.88-.12,18.92-3.26,18.92-6.34,0-2.66-6.5-8.39-7.13-13s11.26-22.88,8.9-26.87C457.3,175.06,444.48,176.7,444.48,176.7Z"/><path class="cls-37" d="M459.4,225.73a37.56,37.56,0,0,0-4.63,1.43,24.56,24.56,0,0,0-2.29,2c-.89.88.39,1.31,1.18,1a14.59,14.59,0,0,1,2-.89,5.14,5.14,0,0,1,.75-.05,17.06,17.06,0,0,1-2.85,3.25c-.66.54-1.29,1-2.27,1.67-.44.31-.15.93.44.86a7.25,7.25,0,0,0,2.82-1.32c.42-.33.83-.68,1.2-1a10.08,10.08,0,0,1-1.23,1.36c-.61.56-1.3.92-2.22,1.65-.43.33-.12.85.47.75a6.57,6.57,0,0,0,.81-.22c-.11.32.16.68.62.6a5.67,5.67,0,0,0,1.16-.48.54.54,0,0,0,.51.13c2.45-.56,6.65-4.08,7.59-5.35C465.76,226.53,462.12,225.4,459.4,225.73Z"/><path class="cls-9" d="M456,179c-2.51,2-4.76,6.29-1.14,11.78s13.94,11.2,16.46,16.5c1.5,3.16-12.44,16.71-12.46,18.44s2.62,5.93,3.63,6.42c1.8.88,21.38-18.13,21.38-25S461.39,174.6,456,179Z"/><path class="cls-37" d="M446.85,164.71a30.9,30.9,0,0,0,1.51,7.19,11.48,11.48,0,0,0,4,5.45c1.51,1.34-6,9.32-12.69,11.35,0,0-4.85-5.91-2.63-9.21s4-3.58,3.19-8c-.69-3.83-1.11-6-1.11-6Z"/><path class="cls-7" d="M436.51,166.75c0,1.89-.77,3.43-1.73,3.43s-1.73-1.54-1.73-3.43a4.61,4.61,0,0,1,.89-3c.16-.21,0-.37-.21-.16a4.9,4.9,0,0,0-.94,3.13c0,2.07.88,3.69,2,3.69s2-1.62,2-3.69a5,5,0,0,0-.55-2.57l-.2.18A5.29,5.29,0,0,1,436.51,166.75Z"/><path class="cls-44" d="M446.85,164.71s-1.09,8.21-8.8,7.63c-3.88-.29-5.86-8.24-4.35-10.24a23.3,23.3,0,0,1,0-7.3c.69-3.28,7.18-5,12.47-3.4,0,0,1.52,1.45.94,7.91a2,2,0,0,1,2.51-.34c1.16.64,1.28,2.14.89,3.55C450,164.22,448.26,165.69,446.85,164.71Z"/><path class="cls-45" d="M447.39,164.08l.58-1.53-1-.41s.64-2.87,2.24-1.81C450.54,161.2,449,164.67,447.39,164.08Z"/><path class="cls-7" d="M449.85,166.75c0,1.89-.77,3.43-1.73,3.43s-1.73-1.54-1.73-3.43a4.61,4.61,0,0,1,.89-3c.16-.21,0-.37-.21-.16a4.9,4.9,0,0,0-.93,3.13c0,2.07.87,3.69,2,3.69s2-1.62,2-3.69a5,5,0,0,0-.55-2.57l-.2.18A5.29,5.29,0,0,1,449.85,166.75Z"/><path class="cls-2" d="M436,167.22s.53-1.29,4.58-.87C440.13,168.5,436.34,169.55,436,167.22Z"/><g class="cls-57"><path class="cls-45" d="M436,167.22a13.58,13.58,0,0,0,4.58-.87"/><path class="cls-45" d="M436,167.22a33.64,33.64,0,0,0,4.58-.87,7.36,7.36,0,0,1-2.23.76A8.81,8.81,0,0,1,436,167.22Z"/></g><path class="cls-31" d="M433.73,162c0,.37.51.39,1.09.34s1.05-.15,1-.51-.53-.62-1.11-.57S433.7,161.63,433.73,162Z"/><path class="cls-31" d="M432.52,160.48c0,.05,1.35-1.17,1.72-1.15s1.73.53,1.87.34a2.72,2.72,0,0,0,.27-.61,10.7,10.7,0,0,0-2.33-.23A4.08,4.08,0,0,0,432.52,160.48Z"/><path class="cls-31" d="M439.07,161.55c0,.36.51.39,1.09.34s1-.16,1-.52-.53-.62-1.11-.57S439,161.18,439.07,161.55Z"/><path class="cls-31" d="M442.53,159.23a9,9,0,0,0-2.27-.59c-.46.11-1.93.86-2.12.7a2.24,2.24,0,0,1-.42-.53,16.24,16.24,0,0,1,2.68-.71A4.13,4.13,0,0,1,442.53,159.23Z"/><path class="cls-46" d="M436.73,165.1s1.35,0,1.32-.41-2.86-.77-3-.51S436.12,164.94,436.73,165.1Z"/><path class="cls-45" d="M436.5,159.5a6.9,6.9,0,0,1,.19,2.3c-.2.6-1.44,2-1.47,2.26s1.4,1,1.51,1-2-.28-2-.95,1.65-2.33,1.71-2.65S436.5,159.5,436.5,159.5Z"/><path class="cls-31" d="M444.48,152c-6.43.68-9.29,6.74-14,6.74-2.91-5.06,6-17.92,16.51-7.94,4.82,4.58.47,8.09.47,8.09l-1.07,3.7s.09-2.78-.9-3.85A6,6,0,0,1,444.48,152Z"/><path class="cls-58" d="M402.4,117.9l-66.08-16.26h0L328,99.58a6.07,6.07,0,0,0-7.34,4.44l-6.56,26.67h0l-.38,1.52-3,12.2a6.07,6.07,0,0,0,4.44,7.34l73.26,18a6.07,6.07,0,0,0,7.34-4.44l.88-3.56h0l2.49-10.16h0l3.65-14.8h0l3.21-13A4.85,4.85,0,0,0,402.4,117.9Z"/><rect class="cls-35" x="313.2" y="105.4" width="87.57" height="53.73" rx="5.83" transform="translate(41.95 -81.48) rotate(13.83)"/><path class="cls-21" d="M324.47,111.72c-2.49,6.64-1.66,15.79,5,19.11,23.8,14.18,49.15,12.93,72.1,3.57l3.21-13.05a4.84,4.84,0,0,0-3.55-5.86L335.14,99.22C330.19,102,326.63,106.87,324.47,111.72Z"/><rect class="cls-9" x="310.36" y="138.59" width="87.57" height="10.46" transform="translate(44.63 -80.47) rotate(13.83)"/><rect class="cls-9" x="321.86" y="105.94" width="31.33" height="5.23" rx="2.34" transform="translate(35.72 -77.52) rotate(13.83)"/><rect class="cls-9" x="319.96" y="116.37" width="54.6" height="2.61" rx="1.17" transform="translate(38.19 -79.58) rotate(13.83)"/><rect class="cls-7" x="358.95" y="130.99" width="5.12" height="3.68" rx="1.65" transform="translate(42.21 -82.54) rotate(13.82)"/><rect class="cls-7" x="365.28" y="132.55" width="5.12" height="3.68" rx="1.65" transform="translate(42.77 -84.01) rotate(13.83)"/><rect class="cls-7" x="371.61" y="134.11" width="5.12" height="3.68" rx="1.65" transform="translate(43.33 -85.48) rotate(13.83)"/><path class="cls-2" d="M389.52,119.2a5.69,5.69,0,1,0-1.87,7.63,5.7,5.7,0,0,1,1.87-7.63Z"/><path class="cls-2" d="M394,118.47a5.67,5.67,0,0,0-4.43.73,5.7,5.7,0,0,1-1.87,7.63,5.69,5.69,0,1,0,6.3-8.36Z"/></g></g></svg>